<svg width="20" height="20" viewBox="0 0 20 20" fill="none" xmlns="http://www.w3.org/2000/svg">
<path d="M13.9749 1.66748C16.3819 1.66756 18.3331 3.61888 18.3333 6.02588V13.9751C18.3333 16.3822 16.3819 18.3334 13.9749 18.3335H6.02563C3.61848 18.3335 1.66626 16.3823 1.66626 13.9751V6.02588C1.6664 3.619 3.61781 1.66775 6.02466 1.66748H13.9749ZM10.0002 5.8335C7.69915 5.8335 5.83339 7.69942 5.83325 10.0005C5.83345 12.3015 7.69918 14.1665 10.0002 14.1665C12.3012 14.1664 14.1661 12.3014 14.1663 10.0005C14.1661 7.69948 12.3013 5.83359 10.0002 5.8335ZM10.0002 7.50049C11.3808 7.50063 12.5002 8.61986 12.5002 10.0005C12.5001 11.381 11.3808 12.5003 10.0002 12.5005C8.61961 12.5005 7.50037 11.3811 7.50024 10.0005C7.50024 8.61978 8.61953 7.50049 10.0002 7.50049ZM15.0002 4.16748C14.5402 4.16749 14.1666 4.54053 14.1663 5.00049C14.1663 5.46072 14.54 5.83447 15.0002 5.83447C15.4603 5.83429 15.8333 5.46061 15.8333 5.00049C15.8329 4.54064 15.4601 4.16766 15.0002 4.16748Z" fill="#F8601F"/>
</svg>
