<svg width="20" height="20" viewBox="0 0 20 20" fill="none" xmlns="http://www.w3.org/2000/svg">
<path d="M5.00024 18.3345H1.66626V7.08447H5.00024V18.3345ZM10.8333 7.08447V7.78564C11.3546 7.60139 11.9159 7.50049 12.5002 7.50049C15.2615 7.50063 17.5002 9.73923 17.5002 12.5005V18.3345H14.1663V12.5005C14.1662 11.5802 13.4205 10.8346 12.5002 10.8345C11.5798 10.8345 10.8333 11.5801 10.8333 12.5005V18.3345H7.50024V7.08447H10.8333ZM3.33325 1.66748C4.25357 1.66748 4.99999 2.41324 5.00024 3.3335C5.00024 4.25397 4.25373 5.00049 3.33325 5.00049C2.41278 5.00048 1.66626 4.25397 1.66626 3.3335C1.66651 2.41324 2.41294 1.66748 3.33325 1.66748Z" fill="#F8601F"/>
</svg>
