<svg width="28" height="28" viewBox="0 0 28 28" fill="none" xmlns="http://www.w3.org/2000/svg">
<g clip-path="url(#clip0_12096_18503)">
<path d="M26.0755 26.4261L20.0652 24.6365L15.5327 27.346L12.3703 27.3446L7.83507 24.6365L1.82749 26.4261L0 20.257L1.82749 13.4102L0 7.62153L1.82749 0.447021L11.2148 6.0555H16.688L26.0755 0.447021L27.903 7.62153L26.0755 13.4102L27.903 20.257L26.0755 26.4261Z" fill="#FF5C16"/>
<path d="M1.82861 0.447021L11.2161 6.05944L10.8428 9.91122L1.82861 0.447021ZM7.83639 20.2596L11.9668 23.406L7.83639 24.6365V20.2596ZM11.6367 15.0577L10.8428 9.91378L5.76143 13.4118L5.75867 13.4104V13.413L5.77444 17.0136L7.83501 15.0579L11.6367 15.0577ZM26.0754 0.447021L16.6879 6.05944L17.06 9.91122L26.0754 0.447021ZM20.0679 20.2596L15.9373 23.406L20.0679 24.6365V20.2596ZM22.144 13.4128V13.4102L22.1428 13.4116L17.0614 9.91378L16.2675 15.0577H20.0677L22.1296 17.0132L22.144 13.4128Z" fill="#FF5C16"/>
<path d="M7.83507 24.6368L1.82749 26.4264L0 20.2599H7.83507V24.6368ZM11.6354 15.0566L12.783 22.4932L11.1925 18.3583L5.77194 17.0135L7.83369 15.0568H11.6354V15.0566ZM20.0677 24.6368L26.0755 26.4264L27.903 20.2599H20.0677V24.6368ZM16.2676 15.0566L15.12 22.4932L16.7103 18.3583L22.131 17.0135L20.0679 15.0568H16.2676V15.0566Z" fill="#E34807"/>
<path d="M0 20.2572L1.82749 13.4104H5.75735L5.77175 17.0121L11.1927 18.3569L12.783 22.4917L11.9655 23.4023L7.83507 20.2558H0V20.2572ZM27.903 20.2572L26.0755 13.4104H22.1454L22.131 17.0121L16.7105 18.3569L15.12 22.4917L15.9373 23.4023L20.0679 20.2558H27.903V20.2572ZM16.688 6.05566H11.2148L10.8431 9.90744L12.7832 22.4877H15.12L17.0613 9.90744L16.688 6.05566Z" fill="#FF8D5D"/>
<path d="M1.82749 0.447021L0 7.62153L1.82749 13.4102H5.75735L10.8415 9.91122L1.82749 0.447021ZM10.4996 16.55H8.71924L7.74989 17.5002L11.1939 18.354L10.4996 16.5488V16.55ZM26.0755 0.447021L27.903 7.62153L26.0755 13.4102H22.1454L17.0615 9.91122L26.0755 0.447021ZM17.4059 16.55H19.1889L20.1582 17.5014L16.7103 18.3568L17.4059 16.5486V16.55ZM15.5313 24.8918L15.9375 23.4047L15.12 22.4941H12.7814L11.9641 23.4047L12.3701 24.8918" fill="#661800"/>
<path d="M15.5313 24.8918V27.3474H12.3702V24.8918H15.5313Z" fill="#C0C4CD"/>
<path d="M7.83643 24.634L12.3728 27.346V24.8905L11.9666 23.4036L7.83643 24.634ZM20.0679 24.634L15.5313 27.346V24.8905L15.9375 23.4036L20.0679 24.634Z" fill="#E7EBF6"/>
</g>
<defs>
<clipPath id="clip0_12096_18503">
<rect width="28" height="27.0141" fill="white" transform="translate(0 0.447021)"/>
</clipPath>
</defs>
</svg>
