<svg width="41" height="40" viewBox="0 0 41 40" fill="none" xmlns="http://www.w3.org/2000/svg">
<path d="M28.2854 10.4409H25.3051C23.1249 10.4409 21.4248 12.1411 21.4248 14.3213V17.3016C21.4248 19.4818 23.1249 21.1819 25.3051 21.1819H29.1255C28.9654 24.8022 28.1254 25.3422 25.7052 26.7624C24.9851 27.1824 24.7651 28.1024 25.1851 28.8225C25.4651 29.3025 25.9652 29.5626 26.4852 29.5626C26.7453 29.5626 27.0053 29.5026 27.2453 29.3626C30.8256 27.2424 32.1657 25.8622 32.1657 19.7017V14.3613C32.1657 12.1811 30.4256 10.4409 28.2854 10.4409Z" fill="#FADBCE"/>
<path d="M16.0246 10.4409H13.0444C10.8642 10.4409 9.16406 12.1411 9.16406 14.3213V17.3016C9.16406 19.4818 10.8642 21.1819 13.0444 21.1819H16.8647C16.7047 24.8022 15.8646 25.3422 13.4444 26.7624C12.7244 27.1824 12.5043 28.1024 12.9244 28.8225C13.2044 29.3025 13.7044 29.5626 14.2245 29.5626C14.4845 29.5626 14.7445 29.5026 14.9846 29.3626C18.5649 27.2424 19.905 25.8622 19.905 19.7017V14.3613C19.885 12.1811 18.1448 10.4409 16.0246 10.4409Z" fill="#FADBCE"/>
</svg>
