<svg width="32" height="32" viewBox="0 0 32 32" fill="none" xmlns="http://www.w3.org/2000/svg">
<path d="M31.1752 18.4239C32.3922 15.6939 26.3401 8.0301 20.5512 4.87249C16.9002 2.4056 13.1176 2.73452 12.3282 3.81995C10.6507 6.18816 17.9198 8.22745 22.7878 10.5628C21.7353 11.0233 20.7485 11.8455 20.1894 12.8652C18.3803 10.8917 14.4004 9.18131 9.72978 10.5628C6.57217 11.4837 3.97372 13.6875 2.95407 16.9767C2.72383 16.878 2.4278 16.8122 2.16467 16.8122C1.07924 16.8122 0.191162 17.7003 0.191162 18.7857C0.191162 19.8711 1.07924 20.7592 2.16467 20.7592C2.36202 20.7592 2.98696 20.6277 2.98696 20.6277L13.1176 20.6934C9.07194 27.1402 5.84855 28.0612 5.84855 29.1795C5.84855 30.2978 8.90748 30.0018 10.0587 29.5742C15.5845 27.6007 21.505 21.3842 22.5247 19.608C26.8006 20.1672 30.3858 20.2001 31.1752 18.4239Z" fill="url(#paint0_linear_12096_18557)"/>
<path fill-rule="evenodd" clip-rule="evenodd" d="M22.8207 10.5629C23.0509 10.4642 23.018 10.1353 22.9522 9.87214C22.8207 9.28009 20.3538 6.84609 18.0513 5.76066C14.8937 4.28053 12.5913 4.34632 12.2624 5.03705C12.8873 6.35272 15.8805 7.56971 18.9723 8.88538C20.2551 9.41165 21.6037 9.97081 22.8207 10.5629Z" fill="url(#paint1_linear_12096_18557)"/>
<path fill-rule="evenodd" clip-rule="evenodd" d="M18.8079 23.7853C18.1829 23.5551 17.4593 23.3249 16.637 23.1275C17.4922 21.5816 17.6896 19.2463 16.8673 17.799C15.7161 15.7597 14.2688 14.6743 10.881 14.6743C9.03902 14.6743 4.03947 15.2993 3.9408 19.4765C3.9408 19.9041 3.9408 20.2988 3.97369 20.6935H13.1176C11.9006 22.6341 10.7494 24.0814 9.72975 25.1668C10.9467 25.4628 11.9335 25.726 12.8545 25.9891C13.7097 26.2193 14.532 26.4167 15.3542 26.6469C16.6041 25.726 17.7882 24.7392 18.8079 23.7853Z" fill="url(#paint2_linear_12096_18557)"/>
<path d="M2.82248 20.2C3.18429 23.3576 4.99334 24.6075 8.67722 24.9693C12.3611 25.3311 14.4662 25.1009 17.262 25.3311C19.5973 25.5284 21.7024 26.7454 22.4589 26.3179C23.1496 25.956 22.7549 24.6075 21.8339 23.7523C20.6169 22.634 18.9395 21.8775 16.0121 21.5814C16.6041 19.9697 16.4397 17.7002 15.5187 16.4832C14.203 14.707 11.769 13.9176 8.67722 14.2466C5.45382 14.6413 2.362 16.253 2.82248 20.2Z" fill="url(#paint3_linear_12096_18557)"/>
<defs>
<linearGradient id="paint0_linear_12096_18557" x1="9.39517" y1="15.8767" x2="30.9545" y2="21.9906" gradientUnits="userSpaceOnUse">
<stop stop-color="#8797FF"/>
<stop offset="1" stop-color="#AAA8FF"/>
</linearGradient>
<linearGradient id="paint1_linear_12096_18557" x1="26.5236" y1="16.3595" x2="10.9676" y2="0.76542" gradientUnits="userSpaceOnUse">
<stop stop-color="#3B22A0"/>
<stop offset="1" stop-color="#5156D8" stop-opacity="0"/>
</linearGradient>
<linearGradient id="paint2_linear_12096_18557" x1="19.2371" y1="24.3489" x2="4.29382" y2="15.7576" gradientUnits="userSpaceOnUse">
<stop stop-color="#3B1E8F"/>
<stop offset="1" stop-color="#6A6FFB" stop-opacity="0"/>
</linearGradient>
<linearGradient id="paint3_linear_12096_18557" x1="8.3537" y1="17.6497" x2="18.4543" y2="30.4836" gradientUnits="userSpaceOnUse">
<stop stop-color="#8898FF"/>
<stop offset="0.9839" stop-color="#5F47F1"/>
</linearGradient>
</defs>
</svg>
