<svg width="536" height="253" viewBox="0 0 536 253" fill="none" xmlns="http://www.w3.org/2000/svg">
<g opacity="1">
<path d="M362.169 72.2051C363.905 69.3708 367.616 68.4718 370.39 70.3034C393.408 85.5056 412.556 105.922 426.258 129.928C439.96 153.934 447.801 180.805 449.185 208.355C449.352 211.675 446.69 214.414 443.367 214.467L367.4 215.681C364.077 215.734 361.361 213.08 361.081 209.768C360.005 197.047 356.172 184.686 349.82 173.556C343.468 162.427 334.774 152.84 324.367 145.444C321.659 143.519 320.754 139.831 322.489 136.997L362.169 72.2051ZM161.426 68.9687C164.155 67.0714 167.887 67.8811 169.69 70.6733L210.904 134.5C212.707 137.292 211.89 141.001 209.227 142.99C199 150.632 190.538 160.424 184.454 171.702C178.369 182.98 174.832 195.428 174.06 208.171C173.859 211.489 171.207 214.208 167.884 214.234L91.9093 214.832C88.5858 214.858 85.8596 212.184 85.9471 208.861C86.6729 181.286 93.8711 154.236 106.996 129.91C120.121 105.583 138.778 84.7158 161.426 68.9687ZM267.726 37.4181C295.96 37.154 323.812 43.685 348.945 56.422C351.909 57.9244 352.966 61.5943 351.363 64.5058L314.722 131.063C313.119 133.974 309.466 135.016 306.451 133.615C294.606 128.113 281.66 125.304 268.549 125.427C255.438 125.55 242.546 128.6 230.806 134.323C227.819 135.779 224.148 134.806 222.491 131.926L184.61 66.0664C182.953 63.1854 183.941 59.4966 186.877 57.9389C211.768 44.7339 239.493 37.6823 267.726 37.4181Z" fill="url(#paint0_linear_12885_9394)"/>
<mask id="path-2-inside-1_12885_9394" fill="white">
<path d="M184.611 66.0663C182.954 63.1853 183.942 59.4966 186.878 57.9389C211.768 44.7339 239.493 37.6826 267.727 37.4185C295.96 37.1543 323.813 43.6855 348.945 56.4225C351.91 57.925 352.967 61.5945 351.364 64.5061L314.722 131.063C313.119 133.975 309.467 135.015 306.453 133.615C294.607 128.112 281.661 125.304 268.55 125.427C255.44 125.55 242.548 128.6 230.808 134.323C227.82 135.779 224.149 134.807 222.492 131.926L184.611 66.0663Z"/>
</mask>
<path d="M184.611 66.0663C182.954 63.1853 183.942 59.4966 186.878 57.9389C211.768 44.7339 239.493 37.6826 267.727 37.4185C295.96 37.1543 323.813 43.6855 348.945 56.4225C351.91 57.925 352.967 61.5945 351.364 64.5061L314.722 131.063C313.119 133.975 309.467 135.015 306.453 133.615C294.607 128.112 281.661 125.304 268.55 125.427C255.44 125.55 242.548 128.6 230.808 134.323C227.82 135.779 224.149 134.807 222.492 131.926L184.611 66.0663Z" stroke="url(#paint1_linear_12885_9394)" stroke-width="6" mask="url(#path-2-inside-1_12885_9394)"/>
<mask id="path-3-inside-2_12885_9394" fill="white">
<path d="M91.9092 214.832C88.5856 214.859 85.8594 212.185 85.9469 208.862C86.6727 181.286 93.8711 154.237 106.996 129.91C120.122 105.584 138.777 84.7159 161.426 68.9689C164.155 67.0716 167.887 67.882 169.69 70.6741L210.903 134.501C212.706 137.293 211.89 141.002 209.228 142.991C199.001 150.633 190.539 160.424 184.454 171.702C178.369 182.98 174.831 195.429 174.059 208.172C173.858 211.49 171.207 214.208 167.883 214.234L91.9092 214.832Z"/>
</mask>
<path d="M91.9092 214.832C88.5856 214.859 85.8594 212.185 85.9469 208.862C86.6727 181.286 93.8711 154.237 106.996 129.91C120.122 105.584 138.777 84.7159 161.426 68.9689C164.155 67.0716 167.887 67.882 169.69 70.6741L210.903 134.501C212.706 137.293 211.89 141.002 209.228 142.991C199.001 150.633 190.539 160.424 184.454 171.702C178.369 182.98 174.831 195.429 174.059 208.172C173.858 211.49 171.207 214.208 167.883 214.234L91.9092 214.832Z" stroke="url(#paint2_linear_12885_9394)" stroke-width="6" mask="url(#path-3-inside-2_12885_9394)"/>
<mask id="path-4-inside-3_12885_9394" fill="white">
<path d="M362.17 72.2049C363.906 69.3706 367.617 68.4714 370.391 70.3031C393.409 85.5053 412.557 105.922 426.259 129.929C439.961 153.935 447.802 180.805 449.186 208.356C449.353 211.675 446.691 214.413 443.368 214.466L367.401 215.681C364.078 215.734 361.362 213.08 361.082 209.768C360.006 197.047 356.173 184.686 349.821 173.557C343.468 162.427 334.775 152.841 324.369 145.445C321.659 143.519 320.755 139.831 322.491 136.997L362.17 72.2049Z"/>
</mask>
<path d="M362.17 72.2049C363.906 69.3706 367.617 68.4714 370.391 70.3031C393.409 85.5053 412.557 105.922 426.259 129.929C439.961 153.935 447.802 180.805 449.186 208.356C449.353 211.675 446.691 214.413 443.368 214.466L367.401 215.681C364.078 215.734 361.362 213.08 361.082 209.768C360.006 197.047 356.173 184.686 349.821 173.557C343.468 162.427 334.775 152.841 324.369 145.445C321.659 143.519 320.755 139.831 322.491 136.997L362.17 72.2049Z" stroke="url(#paint3_linear_12885_9394)" stroke-width="6" mask="url(#path-4-inside-3_12885_9394)"/>
<g filter="url(#filter0_f_12885_9394)">
<path d="M285.5 213C285.5 214.657 275.508 216 267.5 216C259.492 216 253 214.657 253 213C253 211.343 259.492 210 267.5 210C275.508 210 285.5 211.343 285.5 213Z" fill="#191919" fill-opacity="0.14"/>
</g>
<path fill-rule="evenodd" clip-rule="evenodd" d="M284.784 192.297C282.763 188.796 262.314 190.773 257.222 193.714C252.129 196.654 250.413 203.218 253.391 208.375C256.368 213.531 262.91 215.328 268.003 212.387C273.096 209.447 286.806 195.799 284.784 192.297ZM265.84 201.187C264.847 199.468 262.649 198.879 260.931 199.872C259.212 200.864 258.623 203.062 259.615 204.781C260.608 206.5 262.805 207.089 264.524 206.096C266.243 205.104 266.832 202.906 265.84 201.187Z" fill="#F88B5D"/>
</g>
<defs>
<filter id="filter0_f_12885_9394" x="249" y="206" width="40.5" height="14" filterUnits="userSpaceOnUse" color-interpolation-filters="sRGB">
<feFlood flood-opacity="0" result="BackgroundImageFix"/>
<feBlend mode="normal" in="SourceGraphic" in2="BackgroundImageFix" result="shape"/>
<feGaussianBlur stdDeviation="2" result="effect1_foregroundBlur_12885_9394"/>
</filter>
<linearGradient id="paint0_linear_12885_9394" x1="121.992" y1="125.827" x2="419.87" y2="123.483" gradientUnits="userSpaceOnUse">
<stop stop-color="#FAEBE4"/>
<stop offset="0.490385" stop-color="#FADBCE"/>
<stop offset="1" stop-color="#F88757"/>
</linearGradient>
<linearGradient id="paint1_linear_12885_9394" x1="265.1" y1="37.4394" x2="265.32" y2="65.4386" gradientUnits="userSpaceOnUse">
<stop stop-color="#FF8652"/>
<stop offset="1" stop-color="#FF8652" stop-opacity="0"/>
</linearGradient>
<linearGradient id="paint2_linear_12885_9394" x1="114.253" y1="121.129" x2="135.851" y2="133.46" gradientUnits="userSpaceOnUse">
<stop stop-color="#FFC7B0"/>
<stop offset="1" stop-color="#DBB9AB" stop-opacity="0"/>
</linearGradient>
<linearGradient id="paint3_linear_12885_9394" x1="424.851" y1="132.185" x2="402.438" y2="143.362" gradientUnits="userSpaceOnUse">
<stop stop-color="#FF4C00"/>
<stop offset="1" stop-color="#F8601F" stop-opacity="0"/>
</linearGradient>
</defs>
</svg>
