<svg width="88" height="88" viewBox="0 0 88 88" fill="none" xmlns="http://www.w3.org/2000/svg">
<g filter="url(#filter0_i_12885_6062)">
<path d="M0 36C0 19.0294 0 10.5442 5.27208 5.27208C10.5442 0 19.0294 0 36 0H52C68.9706 0 77.4558 0 82.7279 5.27208C88 10.5442 88 19.0294 88 36V52C88 68.9706 88 77.4558 82.7279 82.7279C77.4558 88 68.9706 88 52 88H36C19.0294 88 10.5442 88 5.27208 82.7279C0 77.4558 0 68.9706 0 52V36Z" fill="url(#paint0_linear_12885_6062)"/>
<g filter="url(#filter1_i_12885_6062)">
<path d="M57.9332 45.2168C57.3165 45.2168 56.7998 44.7501 56.7332 44.1335C56.3332 40.4668 54.3665 37.1668 51.3332 35.0668C50.7832 34.6835 50.6498 33.9335 51.0332 33.3835C51.4165 32.8335 52.1665 32.7001 52.7165 33.0835C56.3332 35.6001 58.6665 39.5335 59.1498 43.8835C59.2165 44.5501 58.7332 45.1501 58.0665 45.2168C58.0165 45.2168 57.9832 45.2168 57.9332 45.2168Z" fill="#F8601F"/>
<path d="M30.2335 45.3001C30.2002 45.3001 30.1502 45.3001 30.1168 45.3001C29.4502 45.2334 28.9668 44.6334 29.0335 43.9668C29.4835 39.6168 31.7835 35.6834 35.3668 33.1501C35.9002 32.7668 36.6668 32.9001 37.0502 33.4334C37.4335 33.9834 37.3002 34.7334 36.7668 35.1168C33.7668 37.2501 31.8168 40.5501 31.4502 44.2001C31.3835 44.8334 30.8502 45.3001 30.2335 45.3001Z" fill="#F8601F"/>
<path d="M50.6502 59.1667C48.6002 60.15 46.4002 60.65 44.1002 60.65C41.7002 60.65 39.4168 60.1167 37.2835 59.0333C36.6835 58.75 36.4502 58.0167 36.7502 57.4167C37.0335 56.8167 37.7668 56.5833 38.3668 56.8667C39.4168 57.4 40.5335 57.7667 41.6668 57.9833C43.2002 58.2833 44.7668 58.3 46.3002 58.0333C47.4335 57.8333 48.5502 57.4833 49.5835 56.9833C50.2002 56.7 50.9335 56.9333 51.2002 57.55C51.5002 58.15 51.2668 58.8833 50.6502 59.1667Z" fill="#F8601F"/>
<path d="M44.0833 27.3501C41.5 27.3501 39.3833 29.4501 39.3833 32.0501C39.3833 34.6501 41.4833 36.7501 44.0833 36.7501C46.6833 36.7501 48.7833 34.6501 48.7833 32.0501C48.7833 29.4501 46.6833 27.3501 44.0833 27.3501Z" fill="#F8601F"/>
<path d="M32.4168 47.1167C29.8335 47.1167 27.7168 49.2167 27.7168 51.8167C27.7168 54.4167 29.8168 56.5167 32.4168 56.5167C35.0168 56.5167 37.1168 54.4167 37.1168 51.8167C37.1168 49.2167 35.0001 47.1167 32.4168 47.1167Z" fill="#F8601F"/>
<path d="M55.5833 47.1167C53 47.1167 50.8833 49.2167 50.8833 51.8167C50.8833 54.4167 52.9833 56.5167 55.5833 56.5167C58.1833 56.5167 60.2833 54.4167 60.2833 51.8167C60.2833 49.2167 58.1833 47.1167 55.5833 47.1167Z" fill="#F8601F"/>
</g>
</g>
<defs>
<filter id="filter0_i_12885_6062" x="0" y="0" width="88" height="88" filterUnits="userSpaceOnUse" color-interpolation-filters="sRGB">
<feFlood flood-opacity="0" result="BackgroundImageFix"/>
<feBlend mode="normal" in="SourceGraphic" in2="BackgroundImageFix" result="shape"/>
<feColorMatrix in="SourceAlpha" type="matrix" values="0 0 0 0 0 0 0 0 0 0 0 0 0 0 0 0 0 0 127 0" result="hardAlpha"/>
<feOffset/>
<feGaussianBlur stdDeviation="8.15"/>
<feComposite in2="hardAlpha" operator="arithmetic" k2="-1" k3="1"/>
<feColorMatrix type="matrix" values="0 0 0 0 0 0 0 0 0 0 0 0 0 0 0 0 0 0 0.08 0"/>
<feBlend mode="normal" in2="shape" result="effect1_innerShadow_12885_6062"/>
</filter>
<filter id="filter1_i_12885_6062" x="24" y="24" width="40" height="40" filterUnits="userSpaceOnUse" color-interpolation-filters="sRGB">
<feFlood flood-opacity="0" result="BackgroundImageFix"/>
<feBlend mode="normal" in="SourceGraphic" in2="BackgroundImageFix" result="shape"/>
<feColorMatrix in="SourceAlpha" type="matrix" values="0 0 0 0 0 0 0 0 0 0 0 0 0 0 0 0 0 0 127 0" result="hardAlpha"/>
<feOffset/>
<feGaussianBlur stdDeviation="2.25"/>
<feComposite in2="hardAlpha" operator="arithmetic" k2="-1" k3="1"/>
<feColorMatrix type="matrix" values="0 0 0 0 0.776471 0 0 0 0 0.180392 0 0 0 0 0 0 0 0 1 0"/>
<feBlend mode="normal" in2="shape" result="effect1_innerShadow_12885_6062"/>
</filter>
<linearGradient id="paint0_linear_12885_6062" x1="44" y1="0" x2="44" y2="88" gradientUnits="userSpaceOnUse">
<stop stop-color="#FAEBE4"/>
<stop offset="1" stop-color="#FBF3E2"/>
</linearGradient>
</defs>
</svg>
