<svg width="88" height="88" viewBox="0 0 88 88" fill="none" xmlns="http://www.w3.org/2000/svg">
<g filter="url(#filter0_i_12885_3693)">
<path d="M0 36C0 19.0294 0 10.5442 5.27208 5.27208C10.5442 0 19.0294 0 36 0H52C68.9706 0 77.4558 0 82.7279 5.27208C88 10.5442 88 19.0294 88 36V52C88 68.9706 88 77.4558 82.7279 82.7279C77.4558 88 68.9706 88 52 88H36C19.0294 88 10.5442 88 5.27208 82.7279C0 77.4558 0 68.9706 0 52V36Z" fill="url(#paint0_linear_12885_3693)"/>
<g filter="url(#filter1_i_12885_3693)">
<path d="M50.9835 27.3333H37.0168C30.9502 27.3333 27.3335 30.9499 27.3335 37.0166V50.9666C27.3335 57.0499 30.9502 60.6666 37.0168 60.6666H50.9668C57.0335 60.6666 60.6502 57.0499 60.6502 50.9833V37.0166C60.6668 30.9499 57.0502 27.3333 50.9835 27.3333ZM39.1835 52.1666C39.1835 52.6333 38.8168 52.9999 38.3502 52.9999H33.7002C33.2335 52.9999 32.8668 52.6333 32.8668 52.1666V44.4666C32.8668 43.4166 33.7168 42.5666 34.7668 42.5666H38.3502C38.8168 42.5666 39.1835 42.9333 39.1835 43.3999V52.1666ZM47.1502 52.1666C47.1502 52.6333 46.7835 52.9999 46.3168 52.9999H41.6668C41.2002 52.9999 40.8335 52.6333 40.8335 52.1666V36.8999C40.8335 35.8499 41.6835 34.9999 42.7335 34.9999H45.2668C46.3168 34.9999 47.1668 35.8499 47.1668 36.8999V52.1666H47.1502ZM55.1335 52.1666C55.1335 52.6333 54.7668 52.9999 54.3002 52.9999H49.6502C49.1835 52.9999 48.8168 52.6333 48.8168 52.1666V46.2499C48.8168 45.7833 49.1835 45.4166 49.6502 45.4166H53.2335C54.2835 45.4166 55.1335 46.2666 55.1335 47.3166V52.1666Z" fill="#F8601F"/>
</g>
</g>
<defs>
<filter id="filter0_i_12885_3693" x="0" y="0" width="88" height="88" filterUnits="userSpaceOnUse" color-interpolation-filters="sRGB">
<feFlood flood-opacity="0" result="BackgroundImageFix"/>
<feBlend mode="normal" in="SourceGraphic" in2="BackgroundImageFix" result="shape"/>
<feColorMatrix in="SourceAlpha" type="matrix" values="0 0 0 0 0 0 0 0 0 0 0 0 0 0 0 0 0 0 127 0" result="hardAlpha"/>
<feOffset/>
<feGaussianBlur stdDeviation="8.15"/>
<feComposite in2="hardAlpha" operator="arithmetic" k2="-1" k3="1"/>
<feColorMatrix type="matrix" values="0 0 0 0 0 0 0 0 0 0 0 0 0 0 0 0 0 0 0.08 0"/>
<feBlend mode="normal" in2="shape" result="effect1_innerShadow_12885_3693"/>
</filter>
<filter id="filter1_i_12885_3693" x="24" y="24" width="40" height="40" filterUnits="userSpaceOnUse" color-interpolation-filters="sRGB">
<feFlood flood-opacity="0" result="BackgroundImageFix"/>
<feBlend mode="normal" in="SourceGraphic" in2="BackgroundImageFix" result="shape"/>
<feColorMatrix in="SourceAlpha" type="matrix" values="0 0 0 0 0 0 0 0 0 0 0 0 0 0 0 0 0 0 127 0" result="hardAlpha"/>
<feOffset/>
<feGaussianBlur stdDeviation="2.25"/>
<feComposite in2="hardAlpha" operator="arithmetic" k2="-1" k3="1"/>
<feColorMatrix type="matrix" values="0 0 0 0 0.776471 0 0 0 0 0.180392 0 0 0 0 0 0 0 0 1 0"/>
<feBlend mode="normal" in2="shape" result="effect1_innerShadow_12885_3693"/>
</filter>
<linearGradient id="paint0_linear_12885_3693" x1="44" y1="0" x2="44" y2="88" gradientUnits="userSpaceOnUse">
<stop stop-color="#FAEBE4"/>
<stop offset="1" stop-color="#FBF3E2"/>
</linearGradient>
</defs>
</svg>
