<svg width="88" height="88" viewBox="0 0 88 88" fill="none" xmlns="http://www.w3.org/2000/svg">
<g filter="url(#filter0_i_12885_3706)">
<path d="M0 36C0 19.0294 0 10.5442 5.27208 5.27208C10.5442 0 19.0294 0 36 0H52C68.9706 0 77.4558 0 82.7279 5.27208C88 10.5442 88 19.0294 88 36V52C88 68.9706 88 77.4558 82.7279 82.7279C77.4558 88 68.9706 88 52 88H36C19.0294 88 10.5442 88 5.27208 82.7279C0 77.4558 0 68.9706 0 52V36Z" fill="url(#paint0_linear_12885_3706)"/>
<g filter="url(#filter1_i_12885_3706)">
<path d="M43.8998 27.6832L39.8832 37.0332H35.8665C35.1998 37.0332 34.5498 37.0832 33.9165 37.2165L35.5832 33.2165L35.6498 33.0665L35.7498 32.7999C35.7998 32.6832 35.8332 32.5832 35.8832 32.4999C37.8165 28.0165 39.9832 26.6165 43.8998 27.6832Z" fill="#F8601F"/>
<path d="M55.2169 37.4833L55.1835 37.4666C54.1835 37.1833 53.1669 37.0333 52.1335 37.0333H41.7002L45.4502 28.3166L45.5002 28.2C45.7335 28.2833 45.9835 28.4 46.2335 28.4833L49.9169 30.0333C51.9669 30.8833 53.4002 31.7666 54.2835 32.8333C54.4335 33.0333 54.5669 33.2166 54.7002 33.4333C54.8502 33.6666 54.9669 33.9 55.0335 34.15C55.1002 34.3 55.1502 34.4333 55.1835 34.5833C55.4335 35.4333 55.4502 36.4 55.2169 37.4833Z" fill="#F8601F"/>
<path d="M44.8667 53.4332H45.2834C45.7834 53.4332 46.2 52.9832 46.2 52.4332C46.2 51.7332 46 51.6332 45.5667 51.4666L44.8667 51.2166V53.4332Z" fill="#F8601F"/>
<path d="M54.4834 39.8668C53.7334 39.6501 52.9501 39.5334 52.1334 39.5334H35.8667C34.7334 39.5334 33.6667 39.7501 32.6667 40.1834C29.7667 41.4334 27.7334 44.3168 27.7334 47.6668V50.9168C27.7334 51.3168 27.7667 51.7001 27.8167 52.1001C28.1834 57.4001 31.0167 60.2334 36.3167 60.5835C36.7001 60.6334 37.0834 60.6668 37.5001 60.6668H50.5001C56.6667 60.6668 59.9167 57.7334 60.2334 51.9001C60.2501 51.5834 60.2667 51.2501 60.2667 50.9168V47.6668C60.2667 43.9834 57.8167 40.8834 54.4834 39.8668ZM46.1334 49.8334C46.9001 50.1001 47.9334 50.6668 47.9334 52.4334C47.9334 53.9501 46.7501 55.1668 45.2834 55.1668H44.8667V55.5334C44.8667 56.0168 44.4834 56.4001 44.0001 56.4001C43.5167 56.4001 43.1334 56.0168 43.1334 55.5334V55.1668H42.9834C41.3834 55.1668 40.0667 53.8168 40.0667 52.1501C40.0667 51.6668 40.4501 51.2835 40.9334 51.2835C41.4167 51.2835 41.8001 51.6668 41.8001 52.1501C41.8001 52.8501 42.3334 53.4334 42.9834 53.4334H43.1334V50.6168L41.8667 50.1668C41.1001 49.9001 40.0667 49.3334 40.0667 47.5668C40.0667 46.0501 41.2501 44.8334 42.7167 44.8334H43.1334V44.4668C43.1334 43.9834 43.5167 43.6001 44.0001 43.6001C44.4834 43.6001 44.8667 43.9834 44.8667 44.4668V44.8334H45.0167C46.6167 44.8334 47.9334 46.1834 47.9334 47.8501C47.9334 48.3334 47.5501 48.7168 47.0667 48.7168C46.5834 48.7168 46.2001 48.3334 46.2001 47.8501C46.2001 47.1501 45.6667 46.5668 45.0167 46.5668H44.8667V49.3834L46.1334 49.8334Z" fill="#F8601F"/>
<path d="M41.7998 47.5667C41.7998 48.2667 41.9998 48.3667 42.4331 48.5333L43.1331 48.7833V46.5667H42.7165C42.1998 46.5667 41.7998 47.0167 41.7998 47.5667Z" fill="#F8601F"/>
</g>
</g>
<defs>
<filter id="filter0_i_12885_3706" x="0" y="0" width="88" height="88" filterUnits="userSpaceOnUse" color-interpolation-filters="sRGB">
<feFlood flood-opacity="0" result="BackgroundImageFix"/>
<feBlend mode="normal" in="SourceGraphic" in2="BackgroundImageFix" result="shape"/>
<feColorMatrix in="SourceAlpha" type="matrix" values="0 0 0 0 0 0 0 0 0 0 0 0 0 0 0 0 0 0 127 0" result="hardAlpha"/>
<feOffset/>
<feGaussianBlur stdDeviation="8.15"/>
<feComposite in2="hardAlpha" operator="arithmetic" k2="-1" k3="1"/>
<feColorMatrix type="matrix" values="0 0 0 0 0 0 0 0 0 0 0 0 0 0 0 0 0 0 0.08 0"/>
<feBlend mode="normal" in2="shape" result="effect1_innerShadow_12885_3706"/>
</filter>
<filter id="filter1_i_12885_3706" x="24" y="24" width="40" height="40" filterUnits="userSpaceOnUse" color-interpolation-filters="sRGB">
<feFlood flood-opacity="0" result="BackgroundImageFix"/>
<feBlend mode="normal" in="SourceGraphic" in2="BackgroundImageFix" result="shape"/>
<feColorMatrix in="SourceAlpha" type="matrix" values="0 0 0 0 0 0 0 0 0 0 0 0 0 0 0 0 0 0 127 0" result="hardAlpha"/>
<feOffset/>
<feGaussianBlur stdDeviation="2.25"/>
<feComposite in2="hardAlpha" operator="arithmetic" k2="-1" k3="1"/>
<feColorMatrix type="matrix" values="0 0 0 0 0.776471 0 0 0 0 0.180392 0 0 0 0 0 0 0 0 1 0"/>
<feBlend mode="normal" in2="shape" result="effect1_innerShadow_12885_3706"/>
</filter>
<linearGradient id="paint0_linear_12885_3706" x1="44" y1="0" x2="44" y2="88" gradientUnits="userSpaceOnUse">
<stop stop-color="#FAEBE4"/>
<stop offset="1" stop-color="#FBF3E2"/>
</linearGradient>
</defs>
</svg>
