<svg width="88" height="88" viewBox="0 0 88 88" fill="none" xmlns="http://www.w3.org/2000/svg">
<g filter="url(#filter0_i_12885_3716)">
<path d="M0 36C0 19.0294 0 10.5442 5.27208 5.27208C10.5442 0 19.0294 0 36 0H52C68.9706 0 77.4558 0 82.7279 5.27208C88 10.5442 88 19.0294 88 36V52C88 68.9706 88 77.4558 82.7279 82.7279C77.4558 88 68.9706 88 52 88H36C19.0294 88 10.5442 88 5.27208 82.7279C0 77.4558 0 68.9706 0 52V36Z" fill="url(#paint0_linear_12885_3716)"/>
<g filter="url(#filter1_i_12885_3716)">
<path d="M44.0002 27.3333C34.8168 27.3333 27.3335 34.8166 27.3335 43.9999C27.3335 53.1833 34.8168 60.6666 44.0002 60.6666C53.1835 60.6666 60.6668 53.1833 60.6668 43.9999C60.6668 34.8166 53.1835 27.3333 44.0002 27.3333ZM51.2502 49.9499C51.0168 50.3499 50.6002 50.5666 50.1668 50.5666C49.9502 50.5666 49.7335 50.5166 49.5335 50.3833L44.3668 47.2999C43.0835 46.5333 42.1335 44.8499 42.1335 43.3666V36.5333C42.1335 35.8499 42.7002 35.2833 43.3835 35.2833C44.0668 35.2833 44.6335 35.8499 44.6335 36.5333V43.3666C44.6335 43.9666 45.1335 44.8499 45.6502 45.1499L50.8168 48.2333C51.4168 48.5833 51.6168 49.3499 51.2502 49.9499Z" fill="#F8601F"/>
</g>
</g>
<defs>
<filter id="filter0_i_12885_3716" x="0" y="0" width="88" height="88" filterUnits="userSpaceOnUse" color-interpolation-filters="sRGB">
<feFlood flood-opacity="0" result="BackgroundImageFix"/>
<feBlend mode="normal" in="SourceGraphic" in2="BackgroundImageFix" result="shape"/>
<feColorMatrix in="SourceAlpha" type="matrix" values="0 0 0 0 0 0 0 0 0 0 0 0 0 0 0 0 0 0 127 0" result="hardAlpha"/>
<feOffset/>
<feGaussianBlur stdDeviation="8.15"/>
<feComposite in2="hardAlpha" operator="arithmetic" k2="-1" k3="1"/>
<feColorMatrix type="matrix" values="0 0 0 0 0 0 0 0 0 0 0 0 0 0 0 0 0 0 0.08 0"/>
<feBlend mode="normal" in2="shape" result="effect1_innerShadow_12885_3716"/>
</filter>
<filter id="filter1_i_12885_3716" x="24" y="24" width="40" height="40" filterUnits="userSpaceOnUse" color-interpolation-filters="sRGB">
<feFlood flood-opacity="0" result="BackgroundImageFix"/>
<feBlend mode="normal" in="SourceGraphic" in2="BackgroundImageFix" result="shape"/>
<feColorMatrix in="SourceAlpha" type="matrix" values="0 0 0 0 0 0 0 0 0 0 0 0 0 0 0 0 0 0 127 0" result="hardAlpha"/>
<feOffset/>
<feGaussianBlur stdDeviation="2.25"/>
<feComposite in2="hardAlpha" operator="arithmetic" k2="-1" k3="1"/>
<feColorMatrix type="matrix" values="0 0 0 0 0.776471 0 0 0 0 0.180392 0 0 0 0 0 0 0 0 1 0"/>
<feBlend mode="normal" in2="shape" result="effect1_innerShadow_12885_3716"/>
</filter>
<linearGradient id="paint0_linear_12885_3716" x1="44" y1="0" x2="44" y2="88" gradientUnits="userSpaceOnUse">
<stop stop-color="#FAEBE4"/>
<stop offset="1" stop-color="#FBF3E2"/>
</linearGradient>
</defs>
</svg>
