<svg width="88" height="88" viewBox="0 0 88 88" fill="none" xmlns="http://www.w3.org/2000/svg">
<g filter="url(#filter0_i_12885_3722)">
<path d="M0 36C0 19.0294 0 10.5442 5.27208 5.27208C10.5442 0 19.0294 0 36 0H52C68.9706 0 77.4558 0 82.7279 5.27208C88 10.5442 88 19.0294 88 36V52C88 68.9706 88 77.4558 82.7279 82.7279C77.4558 88 68.9706 88 52 88H36C19.0294 88 10.5442 88 5.27208 82.7279C0 77.4558 0 68.9706 0 52V36Z" fill="url(#paint0_linear_12885_3722)"/>
<g filter="url(#filter1_i_12885_3722)">
<path d="M60.6663 59.4165H58.9997V40.6332C58.9997 39.5999 58.533 38.6332 57.7163 37.9999L55.6663 36.3999L55.633 32.3165C55.633 31.3999 54.883 30.6665 53.9663 30.6665H48.283L46.0497 28.9332C44.8497 27.9832 43.1497 27.9832 41.9497 28.9332L30.283 37.9999C29.4663 38.6332 28.9997 39.5999 28.9997 40.6165L28.9163 59.4165H27.333C26.6497 59.4165 26.083 59.9832 26.083 60.6665C26.083 61.3499 26.6497 61.9165 27.333 61.9165H60.6663C61.3497 61.9165 61.9163 61.3499 61.9163 60.6665C61.9163 59.9832 61.3497 59.4165 60.6663 59.4165ZM34.833 45.2499V42.7499C34.833 41.8332 35.583 41.0832 36.4997 41.0832H39.833C40.7497 41.0832 41.4997 41.8332 41.4997 42.7499V45.2499C41.4997 46.1665 40.7497 46.9165 39.833 46.9165H36.4997C35.583 46.9165 34.833 46.1665 34.833 45.2499ZM48.1663 59.4165H39.833V54.8332C39.833 53.4499 40.9497 52.3332 42.333 52.3332H45.6663C47.0497 52.3332 48.1663 53.4499 48.1663 54.8332V59.4165ZM53.1663 45.2499C53.1663 46.1665 52.4163 46.9165 51.4997 46.9165H48.1663C47.2497 46.9165 46.4997 46.1665 46.4997 45.2499V42.7499C46.4997 41.8332 47.2497 41.0832 48.1663 41.0832H51.4997C52.4163 41.0832 53.1663 41.8332 53.1663 42.7499V45.2499Z" fill="#F8601F"/>
</g>
</g>
<defs>
<filter id="filter0_i_12885_3722" x="0" y="0" width="88" height="88" filterUnits="userSpaceOnUse" color-interpolation-filters="sRGB">
<feFlood flood-opacity="0" result="BackgroundImageFix"/>
<feBlend mode="normal" in="SourceGraphic" in2="BackgroundImageFix" result="shape"/>
<feColorMatrix in="SourceAlpha" type="matrix" values="0 0 0 0 0 0 0 0 0 0 0 0 0 0 0 0 0 0 127 0" result="hardAlpha"/>
<feOffset/>
<feGaussianBlur stdDeviation="8.15"/>
<feComposite in2="hardAlpha" operator="arithmetic" k2="-1" k3="1"/>
<feColorMatrix type="matrix" values="0 0 0 0 0 0 0 0 0 0 0 0 0 0 0 0 0 0 0.08 0"/>
<feBlend mode="normal" in2="shape" result="effect1_innerShadow_12885_3722"/>
</filter>
<filter id="filter1_i_12885_3722" x="24" y="24" width="40" height="40" filterUnits="userSpaceOnUse" color-interpolation-filters="sRGB">
<feFlood flood-opacity="0" result="BackgroundImageFix"/>
<feBlend mode="normal" in="SourceGraphic" in2="BackgroundImageFix" result="shape"/>
<feColorMatrix in="SourceAlpha" type="matrix" values="0 0 0 0 0 0 0 0 0 0 0 0 0 0 0 0 0 0 127 0" result="hardAlpha"/>
<feOffset/>
<feGaussianBlur stdDeviation="2.25"/>
<feComposite in2="hardAlpha" operator="arithmetic" k2="-1" k3="1"/>
<feColorMatrix type="matrix" values="0 0 0 0 0.776471 0 0 0 0 0.180392 0 0 0 0 0 0 0 0 1 0"/>
<feBlend mode="normal" in2="shape" result="effect1_innerShadow_12885_3722"/>
</filter>
<linearGradient id="paint0_linear_12885_3722" x1="44" y1="0" x2="44" y2="88" gradientUnits="userSpaceOnUse">
<stop stop-color="#FAEBE4"/>
<stop offset="1" stop-color="#FBF3E2"/>
</linearGradient>
</defs>
</svg>
