<svg width="88" height="88" viewBox="0 0 88 88" fill="none" xmlns="http://www.w3.org/2000/svg">
<g filter="url(#filter0_i_12885_3728)">
<path d="M0 36C0 19.0294 0 10.5442 5.27208 5.27208C10.5442 0 19.0294 0 36 0H52C68.9706 0 77.4558 0 82.7279 5.27208C88 10.5442 88 19.0294 88 36V52C88 68.9706 88 77.4558 82.7279 82.7279C77.4558 88 68.9706 88 52 88H36C19.0294 88 10.5442 88 5.27208 82.7279C0 77.4558 0 68.9706 0 52V36Z" fill="url(#paint0_linear_12885_3728)"/>
<g filter="url(#filter1_i_12885_3728)">
<path d="M50.9835 27.3333H37.0168C30.9502 27.3333 27.3335 30.9499 27.3335 37.0166V50.9666C27.3335 57.0499 30.9502 60.6666 37.0168 60.6666H50.9668C57.0335 60.6666 60.6502 57.0499 60.6502 50.9833V37.0166C60.6668 30.9499 57.0502 27.3333 50.9835 27.3333ZM52.7668 40.5999L48.9168 45.5666C48.4335 46.1833 47.7502 46.5833 46.9668 46.6666C46.1835 46.7666 45.4168 46.5499 44.8002 46.0666L41.7502 43.6666C41.6335 43.5666 41.5002 43.5666 41.4335 43.5833C41.3668 43.5833 41.2502 43.6166 41.1502 43.7499L37.1835 48.8999C36.9335 49.2166 36.5668 49.3833 36.2002 49.3833C35.9335 49.3833 35.6668 49.2999 35.4335 49.1166C34.8835 48.6999 34.7835 47.9166 35.2002 47.3666L39.1668 42.2166C39.6502 41.5999 40.3335 41.1999 41.1168 41.0999C41.8835 40.9999 42.6668 41.2166 43.2835 41.6999L46.3335 44.0999C46.4502 44.1999 46.5668 44.1999 46.6502 44.1833C46.7168 44.1833 46.8335 44.1499 46.9335 44.0166L50.7835 39.0499C51.2002 38.4999 52.0002 38.3999 52.5335 38.8333C53.0835 39.2833 53.1835 40.0666 52.7668 40.5999Z" fill="#F8601F"/>
</g>
</g>
<defs>
<filter id="filter0_i_12885_3728" x="0" y="0" width="88" height="88" filterUnits="userSpaceOnUse" color-interpolation-filters="sRGB">
<feFlood flood-opacity="0" result="BackgroundImageFix"/>
<feBlend mode="normal" in="SourceGraphic" in2="BackgroundImageFix" result="shape"/>
<feColorMatrix in="SourceAlpha" type="matrix" values="0 0 0 0 0 0 0 0 0 0 0 0 0 0 0 0 0 0 127 0" result="hardAlpha"/>
<feOffset/>
<feGaussianBlur stdDeviation="8.15"/>
<feComposite in2="hardAlpha" operator="arithmetic" k2="-1" k3="1"/>
<feColorMatrix type="matrix" values="0 0 0 0 0 0 0 0 0 0 0 0 0 0 0 0 0 0 0.08 0"/>
<feBlend mode="normal" in2="shape" result="effect1_innerShadow_12885_3728"/>
</filter>
<filter id="filter1_i_12885_3728" x="24" y="24" width="40" height="40" filterUnits="userSpaceOnUse" color-interpolation-filters="sRGB">
<feFlood flood-opacity="0" result="BackgroundImageFix"/>
<feBlend mode="normal" in="SourceGraphic" in2="BackgroundImageFix" result="shape"/>
<feColorMatrix in="SourceAlpha" type="matrix" values="0 0 0 0 0 0 0 0 0 0 0 0 0 0 0 0 0 0 127 0" result="hardAlpha"/>
<feOffset/>
<feGaussianBlur stdDeviation="2.25"/>
<feComposite in2="hardAlpha" operator="arithmetic" k2="-1" k3="1"/>
<feColorMatrix type="matrix" values="0 0 0 0 0.776471 0 0 0 0 0.180392 0 0 0 0 0 0 0 0 1 0"/>
<feBlend mode="normal" in2="shape" result="effect1_innerShadow_12885_3728"/>
</filter>
<linearGradient id="paint0_linear_12885_3728" x1="44" y1="0" x2="44" y2="88" gradientUnits="userSpaceOnUse">
<stop stop-color="#FAEBE4"/>
<stop offset="1" stop-color="#FBF3E2"/>
</linearGradient>
</defs>
</svg>
