<svg width="88" height="88" viewBox="0 0 88 88" fill="none" xmlns="http://www.w3.org/2000/svg">
<g filter="url(#filter0_i_12885_3740)">
<path d="M0 36C0 19.0294 0 10.5442 5.27208 5.27208C10.5442 0 19.0294 0 36 0H52C68.9706 0 77.4558 0 82.7279 5.27208C88 10.5442 88 19.0294 88 36V52C88 68.9706 88 77.4558 82.7279 82.7279C77.4558 88 68.9706 88 52 88H36C19.0294 88 10.5442 88 5.27208 82.7279C0 77.4558 0 68.9706 0 52V36Z" fill="url(#paint0_linear_12885_3740)"/>
<g filter="url(#filter1_i_12885_3740)">
<path d="M59.4166 45.2499C60.1166 45.2499 60.6666 44.6833 60.6666 43.9999C60.6666 43.2999 60.1166 42.7499 59.4166 42.7499H57.3333V39.0833H59.4166C60.1166 39.0833 60.6666 38.5333 60.6666 37.8333C60.6666 37.1499 60.1166 36.5833 59.4166 36.5833H56.9499C56.1499 33.9333 54.0666 31.8499 51.4166 31.0499V28.5833C51.4166 27.8999 50.8499 27.3333 50.1666 27.3333C49.4833 27.3333 48.9166 27.8999 48.9166 28.5833V30.6666H45.2499V28.5833C45.2499 27.8999 44.6833 27.3333 43.9999 27.3333C43.3166 27.3333 42.7499 27.8999 42.7499 28.5833V30.6666H39.0999V28.5833C39.0999 27.8999 38.5333 27.3333 37.8499 27.3333C37.1499 27.3333 36.5999 27.8999 36.5999 28.5833V31.0499C33.9333 31.8499 31.8499 33.9333 31.0499 36.5833H28.5833C27.8999 36.5833 27.3333 37.1499 27.3333 37.8333C27.3333 38.5333 27.8999 39.0833 28.5833 39.0833H30.6666V42.7499H28.5833C27.8999 42.7499 27.3333 43.2999 27.3333 43.9999C27.3333 44.6833 27.8999 45.2499 28.5833 45.2499H30.6666V48.9166H28.5833C27.8999 48.9166 27.3333 49.4666 27.3333 50.1666C27.3333 50.8499 27.8999 51.4166 28.5833 51.4166H31.0499C31.8333 54.0666 33.9333 56.1499 36.5999 56.9499V59.4166C36.5999 60.0999 37.1499 60.6666 37.8499 60.6666C38.5333 60.6666 39.0999 60.0999 39.0999 59.4166V57.3333H42.7666V59.4166C42.7666 60.0999 43.3166 60.6666 44.0166 60.6666C44.6999 60.6666 45.2666 60.0999 45.2666 59.4166V57.3333H48.9166V59.4166C48.9166 60.0999 49.4833 60.6666 50.1666 60.6666C50.8499 60.6666 51.4166 60.0999 51.4166 59.4166V56.9499C54.0666 56.1499 56.1499 54.0666 56.9499 51.4166H59.4166C60.1166 51.4166 60.6666 50.8499 60.6666 50.1666C60.6666 49.4666 60.1166 48.9166 59.4166 48.9166H57.3333V45.2499H59.4166ZM52.7666 47.7666C52.7666 50.5166 50.5166 52.7666 47.7666 52.7666H40.2333C37.4833 52.7666 35.2333 50.5166 35.2333 47.7666V40.2333C35.2333 37.4833 37.4833 35.2333 40.2333 35.2333H47.7666C50.5166 35.2333 52.7666 37.4833 52.7666 40.2333V47.7666Z" fill="#F8601F"/>
<path d="M40.7001 51.0832H47.3167C49.4001 51.0832 51.1001 49.3999 51.1001 47.2999V40.6832C51.1001 38.5999 49.4167 36.8999 47.3167 36.8999H40.7001C38.6167 36.8999 36.9167 38.5832 36.9167 40.6832V47.2999C36.9167 49.3999 38.6001 51.0832 40.7001 51.0832Z" fill="#F8601F"/>
</g>
</g>
<defs>
<filter id="filter0_i_12885_3740" x="0" y="0" width="88" height="88" filterUnits="userSpaceOnUse" color-interpolation-filters="sRGB">
<feFlood flood-opacity="0" result="BackgroundImageFix"/>
<feBlend mode="normal" in="SourceGraphic" in2="BackgroundImageFix" result="shape"/>
<feColorMatrix in="SourceAlpha" type="matrix" values="0 0 0 0 0 0 0 0 0 0 0 0 0 0 0 0 0 0 127 0" result="hardAlpha"/>
<feOffset/>
<feGaussianBlur stdDeviation="8.15"/>
<feComposite in2="hardAlpha" operator="arithmetic" k2="-1" k3="1"/>
<feColorMatrix type="matrix" values="0 0 0 0 0 0 0 0 0 0 0 0 0 0 0 0 0 0 0.08 0"/>
<feBlend mode="normal" in2="shape" result="effect1_innerShadow_12885_3740"/>
</filter>
<filter id="filter1_i_12885_3740" x="24" y="24" width="40" height="40" filterUnits="userSpaceOnUse" color-interpolation-filters="sRGB">
<feFlood flood-opacity="0" result="BackgroundImageFix"/>
<feBlend mode="normal" in="SourceGraphic" in2="BackgroundImageFix" result="shape"/>
<feColorMatrix in="SourceAlpha" type="matrix" values="0 0 0 0 0 0 0 0 0 0 0 0 0 0 0 0 0 0 127 0" result="hardAlpha"/>
<feOffset/>
<feGaussianBlur stdDeviation="2.25"/>
<feComposite in2="hardAlpha" operator="arithmetic" k2="-1" k3="1"/>
<feColorMatrix type="matrix" values="0 0 0 0 0.776471 0 0 0 0 0.180392 0 0 0 0 0 0 0 0 1 0"/>
<feBlend mode="normal" in2="shape" result="effect1_innerShadow_12885_3740"/>
</filter>
<linearGradient id="paint0_linear_12885_3740" x1="44" y1="0" x2="44" y2="88" gradientUnits="userSpaceOnUse">
<stop stop-color="#FAEBE4"/>
<stop offset="1" stop-color="#FBF3E2"/>
</linearGradient>
</defs>
</svg>
