<svg width="88" height="88" viewBox="0 0 88 88" fill="none" xmlns="http://www.w3.org/2000/svg">
<g filter="url(#filter0_i_12885_3747)">
<path d="M0 36C0 19.0294 0 10.5442 5.27208 5.27208C10.5442 0 19.0294 0 36 0H52C68.9706 0 77.4558 0 82.7279 5.27208C88 10.5442 88 19.0294 88 36V52C88 68.9706 88 77.4558 82.7279 82.7279C77.4558 88 68.9706 88 52 88H36C19.0294 88 10.5442 88 5.27208 82.7279C0 77.4558 0 68.9706 0 52V36Z" fill="url(#paint0_linear_12885_3747)"/>
<g filter="url(#filter1_i_12885_3747)">
<path d="M38.6168 48.0499L41.3001 49.2499C43.0168 50.0166 44.9834 50.0166 46.7168 49.2499L49.4001 48.0499C51.8001 46.9832 54.0168 49.8832 52.3501 51.9166L46.5834 58.9666C45.1668 60.6999 42.8501 60.6999 41.4168 58.9666L35.6668 51.9166C33.9834 49.8832 36.2001 46.9832 38.6168 48.0499Z" fill="#F8601F"/>
<path d="M38.2834 43.45C37.7834 43.8166 37.85 44.5833 38.4167 44.8666L42.3334 46.8166C43.25 47.2833 44.7334 47.2833 45.6334 46.8166L49.55 44.8666C50.1 44.5833 50.1667 43.8333 49.6834 43.45L44.5 39.55C44.2 39.3333 43.8 39.3333 43.5 39.55L38.2834 43.45Z" fill="#F8601F"/>
<path d="M53.8 37.7333L46.85 29.0666C46.7167 28.8999 46.5667 28.7499 46.4167 28.5999C45.9834 28.1833 45.3667 28.5666 45.3667 29.1666V36.3333C45.3667 36.5999 45.4834 36.8499 45.7 36.9999L52.6167 42.1999L52.9167 42.4166C53.2167 42.6333 53.6334 42.6333 53.8834 42.3666C55.05 41.0999 55.0334 39.2666 53.8 37.7333Z" fill="#F8601F"/>
<path d="M34.1833 37.8833L41.0999 29.0833C41.2333 28.9167 41.3666 28.7667 41.5166 28.6167C41.9499 28.2 42.5666 28.5667 42.5666 29.1833V36.4667C42.5666 36.7333 42.4499 36.9667 42.2333 37.1333L35.3499 42.4167L35.0666 42.6333C34.7666 42.85 34.3499 42.85 34.0833 42.5667C32.9499 41.2833 32.9666 39.45 34.1833 37.8833Z" fill="#F8601F"/>
</g>
</g>
<defs>
<filter id="filter0_i_12885_3747" x="0" y="0" width="88" height="88" filterUnits="userSpaceOnUse" color-interpolation-filters="sRGB">
<feFlood flood-opacity="0" result="BackgroundImageFix"/>
<feBlend mode="normal" in="SourceGraphic" in2="BackgroundImageFix" result="shape"/>
<feColorMatrix in="SourceAlpha" type="matrix" values="0 0 0 0 0 0 0 0 0 0 0 0 0 0 0 0 0 0 127 0" result="hardAlpha"/>
<feOffset/>
<feGaussianBlur stdDeviation="8.15"/>
<feComposite in2="hardAlpha" operator="arithmetic" k2="-1" k3="1"/>
<feColorMatrix type="matrix" values="0 0 0 0 0 0 0 0 0 0 0 0 0 0 0 0 0 0 0.08 0"/>
<feBlend mode="normal" in2="shape" result="effect1_innerShadow_12885_3747"/>
</filter>
<filter id="filter1_i_12885_3747" x="24" y="24" width="40" height="40" filterUnits="userSpaceOnUse" color-interpolation-filters="sRGB">
<feFlood flood-opacity="0" result="BackgroundImageFix"/>
<feBlend mode="normal" in="SourceGraphic" in2="BackgroundImageFix" result="shape"/>
<feColorMatrix in="SourceAlpha" type="matrix" values="0 0 0 0 0 0 0 0 0 0 0 0 0 0 0 0 0 0 127 0" result="hardAlpha"/>
<feOffset/>
<feGaussianBlur stdDeviation="2.25"/>
<feComposite in2="hardAlpha" operator="arithmetic" k2="-1" k3="1"/>
<feColorMatrix type="matrix" values="0 0 0 0 0.776471 0 0 0 0 0.180392 0 0 0 0 0 0 0 0 1 0"/>
<feBlend mode="normal" in2="shape" result="effect1_innerShadow_12885_3747"/>
</filter>
<linearGradient id="paint0_linear_12885_3747" x1="44" y1="0" x2="44" y2="88" gradientUnits="userSpaceOnUse">
<stop stop-color="#FAEBE4"/>
<stop offset="1" stop-color="#FBF3E2"/>
</linearGradient>
</defs>
</svg>
