<svg width="88" height="88" viewBox="0 0 88 88" fill="none" xmlns="http://www.w3.org/2000/svg">
<g filter="url(#filter0_i_12885_3764)">
<path d="M0 36C0 19.0294 0 10.5442 5.27208 5.27208C10.5442 0 19.0294 0 36 0H52C68.9706 0 77.4558 0 82.7279 5.27208C88 10.5442 88 19.0294 88 36V52C88 68.9706 88 77.4558 82.7279 82.7279C77.4558 88 68.9706 88 52 88H36C19.0294 88 10.5442 88 5.27208 82.7279C0 77.4558 0 68.9706 0 52V36Z" fill="url(#paint0_linear_12885_3764)"/>
<g filter="url(#filter1_i_12885_3764)">
<path d="M59 61.9167H29C28.3167 61.9167 27.75 61.3501 27.75 60.6667C27.75 59.9834 28.3167 59.4167 29 59.4167H59C59.6833 59.4167 60.25 59.9834 60.25 60.6667C60.25 61.3501 59.6833 61.9167 59 61.9167Z" fill="#F8601F"/>
<path d="M33.3333 37.9666H30.6667C29.75 37.9666 29 38.7166 29 39.6332V53.9999C29 54.9166 29.75 55.6666 30.6667 55.6666H33.3333C34.25 55.6666 35 54.9166 35 53.9999V39.6332C35 38.6999 34.25 37.9666 33.3333 37.9666Z" fill="#F8601F"/>
<path d="M45.3333 32.6499H42.6667C41.75 32.6499 41 33.3999 41 34.3166V53.9999C41 54.9166 41.75 55.6666 42.6667 55.6666H45.3333C46.25 55.6666 47 54.9166 47 53.9999V34.3166C47 33.3999 46.25 32.6499 45.3333 32.6499Z" fill="#F8601F"/>
<path d="M57.3333 27.3333H54.6667C53.75 27.3333 53 28.0833 53 28.9999V53.9999C53 54.9166 53.75 55.6666 54.6667 55.6666H57.3333C58.25 55.6666 59 54.9166 59 53.9999V28.9999C59 28.0833 58.25 27.3333 57.3333 27.3333Z" fill="#F8601F"/>
</g>
</g>
<defs>
<filter id="filter0_i_12885_3764" x="0" y="0" width="88" height="88" filterUnits="userSpaceOnUse" color-interpolation-filters="sRGB">
<feFlood flood-opacity="0" result="BackgroundImageFix"/>
<feBlend mode="normal" in="SourceGraphic" in2="BackgroundImageFix" result="shape"/>
<feColorMatrix in="SourceAlpha" type="matrix" values="0 0 0 0 0 0 0 0 0 0 0 0 0 0 0 0 0 0 127 0" result="hardAlpha"/>
<feOffset/>
<feGaussianBlur stdDeviation="8.15"/>
<feComposite in2="hardAlpha" operator="arithmetic" k2="-1" k3="1"/>
<feColorMatrix type="matrix" values="0 0 0 0 0 0 0 0 0 0 0 0 0 0 0 0 0 0 0.08 0"/>
<feBlend mode="normal" in2="shape" result="effect1_innerShadow_12885_3764"/>
</filter>
<filter id="filter1_i_12885_3764" x="24" y="24" width="40" height="40" filterUnits="userSpaceOnUse" color-interpolation-filters="sRGB">
<feFlood flood-opacity="0" result="BackgroundImageFix"/>
<feBlend mode="normal" in="SourceGraphic" in2="BackgroundImageFix" result="shape"/>
<feColorMatrix in="SourceAlpha" type="matrix" values="0 0 0 0 0 0 0 0 0 0 0 0 0 0 0 0 0 0 127 0" result="hardAlpha"/>
<feOffset/>
<feGaussianBlur stdDeviation="2.25"/>
<feComposite in2="hardAlpha" operator="arithmetic" k2="-1" k3="1"/>
<feColorMatrix type="matrix" values="0 0 0 0 0.776471 0 0 0 0 0.180392 0 0 0 0 0 0 0 0 1 0"/>
<feBlend mode="normal" in2="shape" result="effect1_innerShadow_12885_3764"/>
</filter>
<linearGradient id="paint0_linear_12885_3764" x1="44" y1="0" x2="44" y2="88" gradientUnits="userSpaceOnUse">
<stop stop-color="#FAEBE4"/>
<stop offset="1" stop-color="#FBF3E2"/>
</linearGradient>
</defs>
</svg>
