<svg width="88" height="88" viewBox="0 0 88 88" fill="none" xmlns="http://www.w3.org/2000/svg">
<g filter="url(#filter0_i_12885_7388)">
<path d="M0 36C0 19.0294 0 10.5442 5.27208 5.27208C10.5442 0 19.0294 0 36 0H52C68.9706 0 77.4558 0 82.7279 5.27208C88 10.5442 88 19.0294 88 36V52C88 68.9706 88 77.4558 82.7279 82.7279C77.4558 88 68.9706 88 52 88H36C19.0294 88 10.5442 88 5.27208 82.7279C0 77.4558 0 68.9706 0 52V36Z" fill="url(#paint0_linear_12885_7388)"/>
<g filter="url(#filter1_i_12885_7388)">
<path d="M58.9168 30.8833C58.4335 30.1833 57.8168 29.5666 57.1168 29.0833C55.5335 27.9333 53.4668 27.3333 50.9835 27.3333H37.0168C36.6835 27.3333 36.3502 27.3499 36.0335 27.3833C30.5668 27.7333 27.3335 31.2833 27.3335 37.0166V50.9833C27.3335 53.4666 27.9335 55.5333 29.0835 57.1166C29.5668 57.8166 30.1835 58.4333 30.8835 58.9166C32.2502 59.9166 33.9835 60.4999 36.0335 60.6333C36.3502 60.6499 36.6835 60.6666 37.0168 60.6666H50.9835C57.0502 60.6666 60.6668 57.0499 60.6668 50.9833V37.0166C60.6668 34.5333 60.0668 32.4666 58.9168 30.8833ZM55.2502 40.6666C55.2502 41.3499 54.6835 41.9166 54.0002 41.9166C53.3168 41.9166 52.7502 41.3499 52.7502 40.6666V37.0166L45.7668 43.9999L52.7502 50.9833V47.3333C52.7502 46.6499 53.3168 46.0833 54.0002 46.0833C54.6835 46.0833 55.2502 46.6499 55.2502 47.3333V53.9999C55.2502 54.1666 55.2168 54.3166 55.1502 54.4833C55.0168 54.7833 54.7835 55.0333 54.4668 55.1666C54.3168 55.2333 54.1502 55.2666 53.9835 55.2666H47.3168C46.6335 55.2666 46.0668 54.6999 46.0668 54.0166C46.0668 53.3333 46.6335 52.7666 47.3168 52.7666H50.9668L44.0002 45.7666L37.0168 52.7499H40.6668C41.3502 52.7499 41.9168 53.3166 41.9168 53.9999C41.9168 54.6833 41.3502 55.2499 40.6668 55.2499H34.0002C33.8335 55.2499 33.6668 55.2166 33.5168 55.1499C33.2168 55.0166 32.9668 54.7833 32.8335 54.4666C32.7835 54.3166 32.7502 54.1666 32.7502 53.9999V47.3333C32.7502 46.6499 33.3168 46.0833 34.0002 46.0833C34.6835 46.0833 35.2502 46.6499 35.2502 47.3333V50.9833L42.2335 43.9999L35.2502 37.0166V40.6666C35.2502 41.3499 34.6835 41.9166 34.0002 41.9166C33.3168 41.9166 32.7502 41.3499 32.7502 40.6666V33.9999C32.7502 33.8333 32.7835 33.6833 32.8502 33.5166C32.9835 33.2166 33.2168 32.9666 33.5335 32.8333C33.6835 32.7833 33.8335 32.7499 34.0002 32.7499H40.6668C41.3502 32.7499 41.9168 33.3166 41.9168 33.9999C41.9168 34.6833 41.3502 35.2499 40.6668 35.2499H37.0168L44.0002 42.2333L50.9835 35.2499H47.3335C46.6502 35.2499 46.0835 34.6833 46.0835 33.9999C46.0835 33.3166 46.6502 32.7499 47.3335 32.7499H54.0002C54.1668 32.7499 54.3168 32.7833 54.4835 32.8499C54.7835 32.9833 55.0335 33.2166 55.1668 33.5333C55.2168 33.6833 55.2502 33.8333 55.2502 33.9999V40.6666Z" fill="#F8601F"/>
</g>
</g>
<defs>
<filter id="filter0_i_12885_7388" x="0" y="0" width="88" height="88" filterUnits="userSpaceOnUse" color-interpolation-filters="sRGB">
<feFlood flood-opacity="0" result="BackgroundImageFix"/>
<feBlend mode="normal" in="SourceGraphic" in2="BackgroundImageFix" result="shape"/>
<feColorMatrix in="SourceAlpha" type="matrix" values="0 0 0 0 0 0 0 0 0 0 0 0 0 0 0 0 0 0 127 0" result="hardAlpha"/>
<feOffset/>
<feGaussianBlur stdDeviation="8.15"/>
<feComposite in2="hardAlpha" operator="arithmetic" k2="-1" k3="1"/>
<feColorMatrix type="matrix" values="0 0 0 0 0 0 0 0 0 0 0 0 0 0 0 0 0 0 0.08 0"/>
<feBlend mode="normal" in2="shape" result="effect1_innerShadow_12885_7388"/>
</filter>
<filter id="filter1_i_12885_7388" x="24" y="24" width="40" height="40" filterUnits="userSpaceOnUse" color-interpolation-filters="sRGB">
<feFlood flood-opacity="0" result="BackgroundImageFix"/>
<feBlend mode="normal" in="SourceGraphic" in2="BackgroundImageFix" result="shape"/>
<feColorMatrix in="SourceAlpha" type="matrix" values="0 0 0 0 0 0 0 0 0 0 0 0 0 0 0 0 0 0 127 0" result="hardAlpha"/>
<feOffset/>
<feGaussianBlur stdDeviation="2.25"/>
<feComposite in2="hardAlpha" operator="arithmetic" k2="-1" k3="1"/>
<feColorMatrix type="matrix" values="0 0 0 0 0.776471 0 0 0 0 0.180392 0 0 0 0 0 0 0 0 1 0"/>
<feBlend mode="normal" in2="shape" result="effect1_innerShadow_12885_7388"/>
</filter>
<linearGradient id="paint0_linear_12885_7388" x1="44" y1="0" x2="44" y2="88" gradientUnits="userSpaceOnUse">
<stop stop-color="#FAEBE4"/>
<stop offset="1" stop-color="#FBF3E2"/>
</linearGradient>
</defs>
</svg>
