<svg width="88" height="88" viewBox="0 0 88 88" fill="none" xmlns="http://www.w3.org/2000/svg">
<g filter="url(#filter0_i_12885_7394)">
<path d="M0 36C0 19.0294 0 10.5442 5.27208 5.27208C10.5442 0 19.0294 0 36 0H52C68.9706 0 77.4558 0 82.7279 5.27208C88 10.5442 88 19.0294 88 36V52C88 68.9706 88 77.4558 82.7279 82.7279C77.4558 88 68.9706 88 52 88H36C19.0294 88 10.5442 88 5.27208 82.7279C0 77.4558 0 68.9706 0 52V36Z" fill="url(#paint0_linear_12885_7394)"/>
<g filter="url(#filter1_i_12885_7394)">
<path d="M52.3335 27.3333H35.6668C31.0668 27.3333 27.3335 31.0499 27.3335 35.6333V45.5999V47.2666C27.3335 51.8499 31.0668 55.5666 35.6668 55.5666H38.1668C38.6168 55.5666 39.2168 55.8666 39.5002 56.2333L42.0002 59.5499C43.1002 61.0166 44.9002 61.0166 46.0002 59.5499L48.5002 56.2333C48.8168 55.8166 49.3168 55.5666 49.8335 55.5666H52.3335C56.9335 55.5666 60.6668 51.8499 60.6668 47.2666V35.6333C60.6668 31.0499 56.9335 27.3333 52.3335 27.3333ZM37.3335 43.9999C36.4002 43.9999 35.6668 43.2499 35.6668 42.3333C35.6668 41.4166 36.4168 40.6666 37.3335 40.6666C38.2502 40.6666 39.0002 41.4166 39.0002 42.3333C39.0002 43.2499 38.2668 43.9999 37.3335 43.9999ZM44.0002 43.9999C43.0668 43.9999 42.3335 43.2499 42.3335 42.3333C42.3335 41.4166 43.0835 40.6666 44.0002 40.6666C44.9168 40.6666 45.6668 41.4166 45.6668 42.3333C45.6668 43.2499 44.9335 43.9999 44.0002 43.9999ZM50.6668 43.9999C49.7335 43.9999 49.0002 43.2499 49.0002 42.3333C49.0002 41.4166 49.7502 40.6666 50.6668 40.6666C51.5835 40.6666 52.3335 41.4166 52.3335 42.3333C52.3335 43.2499 51.6002 43.9999 50.6668 43.9999Z" fill="#F8601F"/>
</g>
</g>
<defs>
<filter id="filter0_i_12885_7394" x="0" y="0" width="88" height="88" filterUnits="userSpaceOnUse" color-interpolation-filters="sRGB">
<feFlood flood-opacity="0" result="BackgroundImageFix"/>
<feBlend mode="normal" in="SourceGraphic" in2="BackgroundImageFix" result="shape"/>
<feColorMatrix in="SourceAlpha" type="matrix" values="0 0 0 0 0 0 0 0 0 0 0 0 0 0 0 0 0 0 127 0" result="hardAlpha"/>
<feOffset/>
<feGaussianBlur stdDeviation="8.15"/>
<feComposite in2="hardAlpha" operator="arithmetic" k2="-1" k3="1"/>
<feColorMatrix type="matrix" values="0 0 0 0 0 0 0 0 0 0 0 0 0 0 0 0 0 0 0.08 0"/>
<feBlend mode="normal" in2="shape" result="effect1_innerShadow_12885_7394"/>
</filter>
<filter id="filter1_i_12885_7394" x="24" y="24" width="40" height="40" filterUnits="userSpaceOnUse" color-interpolation-filters="sRGB">
<feFlood flood-opacity="0" result="BackgroundImageFix"/>
<feBlend mode="normal" in="SourceGraphic" in2="BackgroundImageFix" result="shape"/>
<feColorMatrix in="SourceAlpha" type="matrix" values="0 0 0 0 0 0 0 0 0 0 0 0 0 0 0 0 0 0 127 0" result="hardAlpha"/>
<feOffset/>
<feGaussianBlur stdDeviation="2.25"/>
<feComposite in2="hardAlpha" operator="arithmetic" k2="-1" k3="1"/>
<feColorMatrix type="matrix" values="0 0 0 0 0.776471 0 0 0 0 0.180392 0 0 0 0 0 0 0 0 1 0"/>
<feBlend mode="normal" in2="shape" result="effect1_innerShadow_12885_7394"/>
</filter>
<linearGradient id="paint0_linear_12885_7394" x1="44" y1="0" x2="44" y2="88" gradientUnits="userSpaceOnUse">
<stop stop-color="#FAEBE4"/>
<stop offset="1" stop-color="#FBF3E2"/>
</linearGradient>
</defs>
</svg>
