<svg width="88" height="88" viewBox="0 0 88 88" fill="none" xmlns="http://www.w3.org/2000/svg">
<g filter="url(#filter0_i_12885_7410)">
<path d="M0 36C0 19.0294 0 10.5442 5.27208 5.27208C10.5442 0 19.0294 0 36 0H52C68.9706 0 77.4558 0 82.7279 5.27208C88 10.5442 88 19.0294 88 36V52C88 68.9706 88 77.4558 82.7279 82.7279C77.4558 88 68.9706 88 52 88H36C19.0294 88 10.5442 88 5.27208 82.7279C0 77.4558 0 68.9706 0 52V36Z" fill="url(#paint0_linear_12885_7410)"/>
<g filter="url(#filter1_i_12885_7410)">
<path d="M54.8998 30.8667L45.7332 27.4334C44.7832 27.0834 43.2332 27.0834 42.2832 27.4334L33.1165 30.8667C31.3498 31.5334 29.9165 33.6001 29.9165 35.4834V48.9834C29.9165 50.3334 30.7998 52.1167 31.8832 52.9167L41.0498 59.7667C42.6665 60.9834 45.3165 60.9834 46.9332 59.7667L56.0998 52.9167C57.1832 52.1001 58.0665 50.3334 58.0665 48.9834V35.4834C58.0832 33.6001 56.6498 31.5334 54.8998 30.8667ZM49.7998 40.2001L42.6332 47.3667C42.3832 47.6167 42.0665 47.7334 41.7498 47.7334C41.4332 47.7334 41.1165 47.6167 40.8665 47.3667L38.1998 44.6667C37.7165 44.1834 37.7165 43.3834 38.1998 42.9001C38.6832 42.4167 39.4832 42.4167 39.9665 42.9001L41.7665 44.7001L48.0498 38.4167C48.5332 37.9334 49.3332 37.9334 49.8165 38.4167C50.2998 38.9001 50.2998 39.7167 49.7998 40.2001Z" fill="#F8601F"/>
</g>
</g>
<defs>
<filter id="filter0_i_12885_7410" x="0" y="0" width="88" height="88" filterUnits="userSpaceOnUse" color-interpolation-filters="sRGB">
<feFlood flood-opacity="0" result="BackgroundImageFix"/>
<feBlend mode="normal" in="SourceGraphic" in2="BackgroundImageFix" result="shape"/>
<feColorMatrix in="SourceAlpha" type="matrix" values="0 0 0 0 0 0 0 0 0 0 0 0 0 0 0 0 0 0 127 0" result="hardAlpha"/>
<feOffset/>
<feGaussianBlur stdDeviation="8.15"/>
<feComposite in2="hardAlpha" operator="arithmetic" k2="-1" k3="1"/>
<feColorMatrix type="matrix" values="0 0 0 0 0 0 0 0 0 0 0 0 0 0 0 0 0 0 0.08 0"/>
<feBlend mode="normal" in2="shape" result="effect1_innerShadow_12885_7410"/>
</filter>
<filter id="filter1_i_12885_7410" x="24" y="24" width="40" height="40" filterUnits="userSpaceOnUse" color-interpolation-filters="sRGB">
<feFlood flood-opacity="0" result="BackgroundImageFix"/>
<feBlend mode="normal" in="SourceGraphic" in2="BackgroundImageFix" result="shape"/>
<feColorMatrix in="SourceAlpha" type="matrix" values="0 0 0 0 0 0 0 0 0 0 0 0 0 0 0 0 0 0 127 0" result="hardAlpha"/>
<feOffset/>
<feGaussianBlur stdDeviation="2.25"/>
<feComposite in2="hardAlpha" operator="arithmetic" k2="-1" k3="1"/>
<feColorMatrix type="matrix" values="0 0 0 0 0.776471 0 0 0 0 0.180392 0 0 0 0 0 0 0 0 1 0"/>
<feBlend mode="normal" in2="shape" result="effect1_innerShadow_12885_7410"/>
</filter>
<linearGradient id="paint0_linear_12885_7410" x1="44" y1="0" x2="44" y2="88" gradientUnits="userSpaceOnUse">
<stop stop-color="#FAEBE4"/>
<stop offset="1" stop-color="#FBF3E2"/>
</linearGradient>
</defs>
</svg>
