<svg width="88" height="88" viewBox="0 0 88 88" fill="none" xmlns="http://www.w3.org/2000/svg">
<g filter="url(#filter0_i_12885_7415)">
<path d="M0 36C0 19.0294 0 10.5442 5.27208 5.27208C10.5442 0 19.0294 0 36 0H52C68.9706 0 77.4558 0 82.7279 5.27208C88 10.5442 88 19.0294 88 36V52C88 68.9706 88 77.4558 82.7279 82.7279C77.4558 88 68.9706 88 52 88H36C19.0294 88 10.5442 88 5.27208 82.7279C0 77.4558 0 68.9706 0 52V36Z" fill="url(#paint0_linear_12885_7415)"/>
<g filter="url(#filter1_i_12885_7415)">
<path d="M60.1164 35.5833C59.0498 31.9666 56.0331 28.9499 52.4164 27.8833C49.6664 27.0833 47.7664 27.1499 46.4498 28.1333C44.8664 29.3166 44.6831 31.4499 44.6831 32.9666V37.1166C44.6831 41.2166 46.5498 43.2999 50.2164 43.2999H54.9998C56.4998 43.2999 58.6498 43.1166 59.8331 41.5333C60.8498 40.2333 60.9331 38.3333 60.1164 35.5833Z" fill="#F8601F"/>
<path d="M55.5165 46.2667C55.0832 45.7667 54.4498 45.4833 53.7998 45.4833H47.8332C44.8998 45.4833 42.5165 43.1 42.5165 40.1667V34.2C42.5165 33.55 42.2332 32.9167 41.7332 32.4833C41.2498 32.05 40.5832 31.85 39.9498 31.9333C36.0332 32.4333 32.4332 34.5833 30.0832 37.8167C27.7165 41.0667 26.8498 45.0333 27.5998 49C28.6832 54.7333 33.2665 59.3167 39.0165 60.4C39.9332 60.5833 40.8498 60.6667 41.7665 60.6667C44.7832 60.6667 47.6998 59.7333 50.1832 57.9167C53.4165 55.5667 55.5665 51.9667 56.0665 48.05C56.1498 47.4 55.9498 46.75 55.5165 46.2667Z" fill="#F8601F"/>
</g>
</g>
<defs>
<filter id="filter0_i_12885_7415" x="0" y="0" width="88" height="88" filterUnits="userSpaceOnUse" color-interpolation-filters="sRGB">
<feFlood flood-opacity="0" result="BackgroundImageFix"/>
<feBlend mode="normal" in="SourceGraphic" in2="BackgroundImageFix" result="shape"/>
<feColorMatrix in="SourceAlpha" type="matrix" values="0 0 0 0 0 0 0 0 0 0 0 0 0 0 0 0 0 0 127 0" result="hardAlpha"/>
<feOffset/>
<feGaussianBlur stdDeviation="8.15"/>
<feComposite in2="hardAlpha" operator="arithmetic" k2="-1" k3="1"/>
<feColorMatrix type="matrix" values="0 0 0 0 0 0 0 0 0 0 0 0 0 0 0 0 0 0 0.08 0"/>
<feBlend mode="normal" in2="shape" result="effect1_innerShadow_12885_7415"/>
</filter>
<filter id="filter1_i_12885_7415" x="24" y="24" width="40" height="40" filterUnits="userSpaceOnUse" color-interpolation-filters="sRGB">
<feFlood flood-opacity="0" result="BackgroundImageFix"/>
<feBlend mode="normal" in="SourceGraphic" in2="BackgroundImageFix" result="shape"/>
<feColorMatrix in="SourceAlpha" type="matrix" values="0 0 0 0 0 0 0 0 0 0 0 0 0 0 0 0 0 0 127 0" result="hardAlpha"/>
<feOffset/>
<feGaussianBlur stdDeviation="2.25"/>
<feComposite in2="hardAlpha" operator="arithmetic" k2="-1" k3="1"/>
<feColorMatrix type="matrix" values="0 0 0 0 0.776471 0 0 0 0 0.180392 0 0 0 0 0 0 0 0 1 0"/>
<feBlend mode="normal" in2="shape" result="effect1_innerShadow_12885_7415"/>
</filter>
<linearGradient id="paint0_linear_12885_7415" x1="44" y1="0" x2="44" y2="88" gradientUnits="userSpaceOnUse">
<stop stop-color="#FAEBE4"/>
<stop offset="1" stop-color="#FBF3E2"/>
</linearGradient>
</defs>
</svg>
