<svg width="88" height="88" viewBox="0 0 88 88" fill="none" xmlns="http://www.w3.org/2000/svg">
<g filter="url(#filter0_i_12885_6079)">
<path d="M0 36C0 19.0294 0 10.5442 5.27208 5.27208C10.5442 0 19.0294 0 36 0H52C68.9706 0 77.4558 0 82.7279 5.27208C88 10.5442 88 19.0294 88 36V52C88 68.9706 88 77.4558 82.7279 82.7279C77.4558 88 68.9706 88 52 88H36C19.0294 88 10.5442 88 5.27208 82.7279C0 77.4558 0 68.9706 0 52V36Z" fill="url(#paint0_linear_12885_6079)"/>
<g filter="url(#filter1_i_12885_6079)">
<path d="M58.9666 29.0333C57.5166 27.5833 55.4666 27.0166 53.4833 27.5166L37.1499 31.5999C34.3999 32.2833 32.2833 34.4166 31.5999 37.1499L27.5166 53.4999C27.0166 55.4833 27.5833 57.5333 29.0333 58.9833C30.1333 60.0666 31.5833 60.6666 33.0833 60.6666C33.5499 60.6666 34.0333 60.6166 34.4999 60.4833L50.8499 56.3999C53.5833 55.7166 55.7166 53.5999 56.3999 50.8499L60.4833 34.4999C60.9833 32.5166 60.4166 30.4666 58.9666 29.0333ZM43.9999 50.4666C40.4333 50.4666 37.5333 47.5666 37.5333 43.9999C37.5333 40.4333 40.4333 37.5333 43.9999 37.5333C47.5666 37.5333 50.4666 40.4333 50.4666 43.9999C50.4666 47.5666 47.5666 50.4666 43.9999 50.4666Z" fill="#F8601F"/>
</g>
</g>
<defs>
<filter id="filter0_i_12885_6079" x="0" y="0" width="88" height="88" filterUnits="userSpaceOnUse" color-interpolation-filters="sRGB">
<feFlood flood-opacity="0" result="BackgroundImageFix"/>
<feBlend mode="normal" in="SourceGraphic" in2="BackgroundImageFix" result="shape"/>
<feColorMatrix in="SourceAlpha" type="matrix" values="0 0 0 0 0 0 0 0 0 0 0 0 0 0 0 0 0 0 127 0" result="hardAlpha"/>
<feOffset/>
<feGaussianBlur stdDeviation="8.15"/>
<feComposite in2="hardAlpha" operator="arithmetic" k2="-1" k3="1"/>
<feColorMatrix type="matrix" values="0 0 0 0 0 0 0 0 0 0 0 0 0 0 0 0 0 0 0.08 0"/>
<feBlend mode="normal" in2="shape" result="effect1_innerShadow_12885_6079"/>
</filter>
<filter id="filter1_i_12885_6079" x="24" y="24" width="40" height="40" filterUnits="userSpaceOnUse" color-interpolation-filters="sRGB">
<feFlood flood-opacity="0" result="BackgroundImageFix"/>
<feBlend mode="normal" in="SourceGraphic" in2="BackgroundImageFix" result="shape"/>
<feColorMatrix in="SourceAlpha" type="matrix" values="0 0 0 0 0 0 0 0 0 0 0 0 0 0 0 0 0 0 127 0" result="hardAlpha"/>
<feOffset/>
<feGaussianBlur stdDeviation="2.25"/>
<feComposite in2="hardAlpha" operator="arithmetic" k2="-1" k3="1"/>
<feColorMatrix type="matrix" values="0 0 0 0 0.776471 0 0 0 0 0.180392 0 0 0 0 0 0 0 0 1 0"/>
<feBlend mode="normal" in2="shape" result="effect1_innerShadow_12885_6079"/>
</filter>
<linearGradient id="paint0_linear_12885_6079" x1="44" y1="0" x2="44" y2="88" gradientUnits="userSpaceOnUse">
<stop stop-color="#FAEBE4"/>
<stop offset="1" stop-color="#FBF3E2"/>
</linearGradient>
</defs>
</svg>
