<svg width="88" height="88" viewBox="0 0 88 88" fill="none" xmlns="http://www.w3.org/2000/svg">
<g filter="url(#filter0_i_12885_7422)">
<path d="M0 36C0 19.0294 0 10.5442 5.27208 5.27208C10.5442 0 19.0294 0 36 0H52C68.9706 0 77.4558 0 82.7279 5.27208C88 10.5442 88 19.0294 88 36V52C88 68.9706 88 77.4558 82.7279 82.7279C77.4558 88 68.9706 88 52 88H36C19.0294 88 10.5442 88 5.27208 82.7279C0 77.4558 0 68.9706 0 52V36Z" fill="url(#paint0_linear_12885_7422)"/>
<g filter="url(#filter1_i_12885_7422)">
<path d="M44 27.3335C53.2046 27.3337 60.666 34.7959 60.666 44.0005C60.6658 53.205 53.2045 60.6663 44 60.6665C34.7954 60.6665 27.3332 53.2051 27.333 44.0005C27.333 34.7957 34.7953 27.3335 44 27.3335ZM44 33.5835C43.3096 33.5835 42.75 34.1431 42.75 34.8335V36.2563C40.826 36.8005 39.416 38.5694 39.416 40.6675C39.4165 43.1983 41.4681 45.2503 43.999 45.2505C44.002 45.2505 44.0049 45.2495 44.0078 45.2495C45.1544 45.2542 46.083 46.1858 46.083 47.3335C46.0828 48.4839 45.1495 49.4165 43.999 49.4165C42.8487 49.4163 41.9162 48.4838 41.916 47.3335C41.916 46.6431 41.3564 46.0835 40.666 46.0835C39.9757 46.0835 39.416 46.6431 39.416 47.3335C39.4162 49.4314 40.8262 51.1987 42.75 51.7427V53.1665C42.75 53.8569 43.3096 54.4165 44 54.4165C44.6904 54.4165 45.25 53.8569 45.25 53.1665V51.7417C47.1731 51.1971 48.5829 49.4308 48.583 47.3335C48.583 44.8022 46.5303 42.7495 43.999 42.7495C43.9958 42.7495 43.9925 42.7495 43.9893 42.7495C42.8436 42.7441 41.9165 41.8143 41.916 40.6675C41.916 39.517 42.8486 38.5837 43.999 38.5835C45.1496 38.5835 46.083 39.5169 46.083 40.6675C46.0834 41.3575 46.6429 41.9175 47.333 41.9175C48.0229 41.9173 48.5826 41.3574 48.583 40.6675C48.583 38.5699 47.1734 36.801 45.25 36.2563V34.8335C45.25 34.1431 44.6904 33.5835 44 33.5835Z" fill="#F8601F"/>
</g>
</g>
<defs>
<filter id="filter0_i_12885_7422" x="0" y="0" width="88" height="88" filterUnits="userSpaceOnUse" color-interpolation-filters="sRGB">
<feFlood flood-opacity="0" result="BackgroundImageFix"/>
<feBlend mode="normal" in="SourceGraphic" in2="BackgroundImageFix" result="shape"/>
<feColorMatrix in="SourceAlpha" type="matrix" values="0 0 0 0 0 0 0 0 0 0 0 0 0 0 0 0 0 0 127 0" result="hardAlpha"/>
<feOffset/>
<feGaussianBlur stdDeviation="8.15"/>
<feComposite in2="hardAlpha" operator="arithmetic" k2="-1" k3="1"/>
<feColorMatrix type="matrix" values="0 0 0 0 0 0 0 0 0 0 0 0 0 0 0 0 0 0 0.08 0"/>
<feBlend mode="normal" in2="shape" result="effect1_innerShadow_12885_7422"/>
</filter>
<filter id="filter1_i_12885_7422" x="24" y="24" width="40" height="40" filterUnits="userSpaceOnUse" color-interpolation-filters="sRGB">
<feFlood flood-opacity="0" result="BackgroundImageFix"/>
<feBlend mode="normal" in="SourceGraphic" in2="BackgroundImageFix" result="shape"/>
<feColorMatrix in="SourceAlpha" type="matrix" values="0 0 0 0 0 0 0 0 0 0 0 0 0 0 0 0 0 0 127 0" result="hardAlpha"/>
<feOffset/>
<feGaussianBlur stdDeviation="2.25"/>
<feComposite in2="hardAlpha" operator="arithmetic" k2="-1" k3="1"/>
<feColorMatrix type="matrix" values="0 0 0 0 0.776471 0 0 0 0 0.180392 0 0 0 0 0 0 0 0 1 0"/>
<feBlend mode="normal" in2="shape" result="effect1_innerShadow_12885_7422"/>
</filter>
<linearGradient id="paint0_linear_12885_7422" x1="44" y1="0" x2="44" y2="88" gradientUnits="userSpaceOnUse">
<stop stop-color="#FAEBE4"/>
<stop offset="1" stop-color="#FBF3E2"/>
</linearGradient>
</defs>
</svg>
