<svg width="88" height="88" viewBox="0 0 88 88" fill="none" xmlns="http://www.w3.org/2000/svg">
<g filter="url(#filter0_i_12885_7438)">
<path d="M0 36C0 19.0294 0 10.5442 5.27208 5.27208C10.5442 0 19.0294 0 36 0H52C68.9706 0 77.4558 0 82.7279 5.27208C88 10.5442 88 19.0294 88 36V52C88 68.9706 88 77.4558 82.7279 82.7279C77.4558 88 68.9706 88 52 88H36C19.0294 88 10.5442 88 5.27208 82.7279C0 77.4558 0 68.9706 0 52V36Z" fill="url(#paint0_linear_12885_7438)"/>
<g filter="url(#filter1_i_12885_7438)">
<path d="M56.9834 31.0334C52.0501 26.1168 44.0501 26.1168 39.1501 31.0334C35.7001 34.4501 34.6667 39.3668 36.0001 43.7001L28.1667 51.5334C27.6167 52.1001 27.2334 53.2168 27.3501 54.0168L27.8501 57.6501C28.0334 58.8501 29.1501 59.9834 30.3501 60.1501L33.9834 60.6501C34.7834 60.7668 35.9001 60.4001 36.4667 59.8168L37.8334 58.4501C38.1667 58.1334 38.1667 57.6001 37.8334 57.2668L34.6001 54.0334C34.1167 53.5501 34.1167 52.7501 34.6001 52.2668C35.0834 51.7834 35.8834 51.7834 36.3667 52.2668L39.6167 55.5168C39.9334 55.8334 40.4667 55.8334 40.7834 55.5168L44.3167 52.0001C48.6334 53.3501 53.5501 52.3001 56.9834 48.8834C61.9001 43.9668 61.9001 35.9501 56.9834 31.0334ZM48.1667 44.0001C45.8667 44.0001 44.0001 42.1334 44.0001 39.8334C44.0001 37.5334 45.8667 35.6668 48.1667 35.6668C50.4667 35.6668 52.3334 37.5334 52.3334 39.8334C52.3334 42.1334 50.4667 44.0001 48.1667 44.0001Z" fill="#F8601F"/>
</g>
</g>
<defs>
<filter id="filter0_i_12885_7438" x="0" y="0" width="88" height="88" filterUnits="userSpaceOnUse" color-interpolation-filters="sRGB">
<feFlood flood-opacity="0" result="BackgroundImageFix"/>
<feBlend mode="normal" in="SourceGraphic" in2="BackgroundImageFix" result="shape"/>
<feColorMatrix in="SourceAlpha" type="matrix" values="0 0 0 0 0 0 0 0 0 0 0 0 0 0 0 0 0 0 127 0" result="hardAlpha"/>
<feOffset/>
<feGaussianBlur stdDeviation="8.15"/>
<feComposite in2="hardAlpha" operator="arithmetic" k2="-1" k3="1"/>
<feColorMatrix type="matrix" values="0 0 0 0 0 0 0 0 0 0 0 0 0 0 0 0 0 0 0.08 0"/>
<feBlend mode="normal" in2="shape" result="effect1_innerShadow_12885_7438"/>
</filter>
<filter id="filter1_i_12885_7438" x="24" y="24" width="40" height="40" filterUnits="userSpaceOnUse" color-interpolation-filters="sRGB">
<feFlood flood-opacity="0" result="BackgroundImageFix"/>
<feBlend mode="normal" in="SourceGraphic" in2="BackgroundImageFix" result="shape"/>
<feColorMatrix in="SourceAlpha" type="matrix" values="0 0 0 0 0 0 0 0 0 0 0 0 0 0 0 0 0 0 127 0" result="hardAlpha"/>
<feOffset/>
<feGaussianBlur stdDeviation="2.25"/>
<feComposite in2="hardAlpha" operator="arithmetic" k2="-1" k3="1"/>
<feColorMatrix type="matrix" values="0 0 0 0 0.776471 0 0 0 0 0.180392 0 0 0 0 0 0 0 0 1 0"/>
<feBlend mode="normal" in2="shape" result="effect1_innerShadow_12885_7438"/>
</filter>
<linearGradient id="paint0_linear_12885_7438" x1="44" y1="0" x2="44" y2="88" gradientUnits="userSpaceOnUse">
<stop stop-color="#FAEBE4"/>
<stop offset="1" stop-color="#FBF3E2"/>
</linearGradient>
</defs>
</svg>
