<svg width="88" height="88" viewBox="0 0 88 88" fill="none" xmlns="http://www.w3.org/2000/svg">
<g filter="url(#filter0_i_12885_7443)">
<path d="M0 36C0 19.0294 0 10.5442 5.27208 5.27208C10.5442 0 19.0294 0 36 0H52C68.9706 0 77.4558 0 82.7279 5.27208C88 10.5442 88 19.0294 88 36V52C88 68.9706 88 77.4558 82.7279 82.7279C77.4558 88 68.9706 88 52 88H36C19.0294 88 10.5442 88 5.27208 82.7279C0 77.4558 0 68.9706 0 52V36Z" fill="url(#paint0_linear_12885_7443)"/>
<g filter="url(#filter1_i_12885_7443)">
<path d="M44.0002 27.334C53.2048 27.3342 60.6663 34.7963 60.6663 44.001C60.6661 53.2055 53.2047 60.6668 44.0002 60.667C34.7956 60.667 27.3334 53.2056 27.3333 44.001C27.3333 34.7962 34.7955 27.334 44.0002 27.334ZM45.0647 36.084C42.0923 36.0841 39.5306 37.7776 38.2229 40.251H36.9504C36.2601 40.251 35.7004 40.8106 35.7004 41.501C35.7007 42.1911 36.2602 42.751 36.9504 42.751H37.3938C37.3302 43.1585 37.2961 43.576 37.2961 44.001C37.2962 44.4256 37.3303 44.8427 37.3938 45.25H36.9504C36.2601 45.25 35.7005 45.8097 35.7004 46.5C35.7004 47.1903 36.2601 47.75 36.9504 47.75H38.2229C39.5305 50.2234 42.0922 51.9169 45.0647 51.917C47.1113 51.917 48.9708 51.1098 50.3538 49.7998L50.6243 49.5312C51.1018 49.0328 51.0846 48.2412 50.5862 47.7637C50.1189 47.316 49.3946 47.3032 48.9124 47.7139L48.8186 47.8018C47.8583 48.8038 46.5297 49.417 45.0647 49.417C43.5793 49.4169 42.2269 48.7797 41.2639 47.75H44.9329L45.0608 47.7432C45.6909 47.6789 46.1829 47.147 46.1829 46.5C46.1828 45.853 45.6909 45.321 45.0608 45.2568L44.9329 45.25H39.9387C39.847 44.8496 39.7962 44.4318 39.7961 44.001C39.7961 43.5698 39.8469 43.1517 39.9387 42.751H44.9329L45.0608 42.7441C45.6908 42.68 46.1826 42.1478 46.1829 41.501C46.1829 40.8539 45.6909 40.322 45.0608 40.2578L44.9329 40.251H41.2649C42.2278 39.2215 43.5796 38.5841 45.0647 38.584C46.5298 38.584 47.8583 39.198 48.8186 40.2002C49.2962 40.6985 50.0878 40.7149 50.5862 40.2373C51.0845 39.7597 51.1019 38.9682 50.6243 38.4697C49.2182 37.0024 47.2477 36.084 45.0647 36.084Z" fill="#F8601F"/>
</g>
</g>
<defs>
<filter id="filter0_i_12885_7443" x="0" y="0" width="88" height="88" filterUnits="userSpaceOnUse" color-interpolation-filters="sRGB">
<feFlood flood-opacity="0" result="BackgroundImageFix"/>
<feBlend mode="normal" in="SourceGraphic" in2="BackgroundImageFix" result="shape"/>
<feColorMatrix in="SourceAlpha" type="matrix" values="0 0 0 0 0 0 0 0 0 0 0 0 0 0 0 0 0 0 127 0" result="hardAlpha"/>
<feOffset/>
<feGaussianBlur stdDeviation="8.15"/>
<feComposite in2="hardAlpha" operator="arithmetic" k2="-1" k3="1"/>
<feColorMatrix type="matrix" values="0 0 0 0 0 0 0 0 0 0 0 0 0 0 0 0 0 0 0.08 0"/>
<feBlend mode="normal" in2="shape" result="effect1_innerShadow_12885_7443"/>
</filter>
<filter id="filter1_i_12885_7443" x="27.3333" y="27.334" width="33.333" height="33.333" filterUnits="userSpaceOnUse" color-interpolation-filters="sRGB">
<feFlood flood-opacity="0" result="BackgroundImageFix"/>
<feBlend mode="normal" in="SourceGraphic" in2="BackgroundImageFix" result="shape"/>
<feColorMatrix in="SourceAlpha" type="matrix" values="0 0 0 0 0 0 0 0 0 0 0 0 0 0 0 0 0 0 127 0" result="hardAlpha"/>
<feOffset/>
<feGaussianBlur stdDeviation="2.25"/>
<feComposite in2="hardAlpha" operator="arithmetic" k2="-1" k3="1"/>
<feColorMatrix type="matrix" values="0 0 0 0 0.776471 0 0 0 0 0.180392 0 0 0 0 0 0 0 0 1 0"/>
<feBlend mode="normal" in2="shape" result="effect1_innerShadow_12885_7443"/>
</filter>
<linearGradient id="paint0_linear_12885_7443" x1="44" y1="0" x2="44" y2="88" gradientUnits="userSpaceOnUse">
<stop stop-color="#FAEBE4"/>
<stop offset="1" stop-color="#FBF3E2"/>
</linearGradient>
</defs>
</svg>
