<svg width="88" height="88" viewBox="0 0 88 88" fill="none" xmlns="http://www.w3.org/2000/svg">
<g filter="url(#filter0_i_12885_7457)">
<path d="M0 36C0 19.0294 0 10.5442 5.27208 5.27208C10.5442 0 19.0294 0 36 0H52C68.9706 0 77.4558 0 82.7279 5.27208C88 10.5442 88 19.0294 88 36V52C88 68.9706 88 77.4558 82.7279 82.7279C77.4558 88 68.9706 88 52 88H36C19.0294 88 10.5442 88 5.27208 82.7279C0 77.4558 0 68.9706 0 52V36Z" fill="url(#paint0_linear_12885_7457)"/>
<g filter="url(#filter1_i_12885_7457)">
<path d="M50.6666 45.15V54.1333C50.6666 58.0333 48.0666 60.6166 44.1833 60.6166H33.8166C29.9333 60.6166 27.3333 58.0333 27.3333 54.1333V41.1833C27.3333 37.2833 29.9333 34.7 33.8166 34.7H40.1999C41.9166 34.7 43.5666 35.3833 44.7833 36.6L48.7666 40.5666C49.9833 41.7833 50.6666 43.4333 50.6666 45.15Z" fill="#F8601F"/>
<path d="M60.6667 37.7501V46.7334C60.6667 50.6168 58.0667 53.2168 54.1834 53.2168H52.3334V45.1501C52.3334 43.0001 51.4667 40.9001 49.95 39.3834L45.9667 35.4168C44.45 33.9001 42.35 33.0334 40.2 33.0334H37.3667C37.6667 29.5668 40.1834 27.2834 43.8167 27.2834H50.2C51.9167 27.2834 53.5667 27.9668 54.7834 29.1834L58.7667 33.1668C59.9834 34.3834 60.6667 36.0334 60.6667 37.7501Z" fill="#F8601F"/>
</g>
</g>
<defs>
<filter id="filter0_i_12885_7457" x="0" y="0" width="88" height="88" filterUnits="userSpaceOnUse" color-interpolation-filters="sRGB">
<feFlood flood-opacity="0" result="BackgroundImageFix"/>
<feBlend mode="normal" in="SourceGraphic" in2="BackgroundImageFix" result="shape"/>
<feColorMatrix in="SourceAlpha" type="matrix" values="0 0 0 0 0 0 0 0 0 0 0 0 0 0 0 0 0 0 127 0" result="hardAlpha"/>
<feOffset/>
<feGaussianBlur stdDeviation="8.15"/>
<feComposite in2="hardAlpha" operator="arithmetic" k2="-1" k3="1"/>
<feColorMatrix type="matrix" values="0 0 0 0 0 0 0 0 0 0 0 0 0 0 0 0 0 0 0.08 0"/>
<feBlend mode="normal" in2="shape" result="effect1_innerShadow_12885_7457"/>
</filter>
<filter id="filter1_i_12885_7457" x="24" y="24" width="40" height="40" filterUnits="userSpaceOnUse" color-interpolation-filters="sRGB">
<feFlood flood-opacity="0" result="BackgroundImageFix"/>
<feBlend mode="normal" in="SourceGraphic" in2="BackgroundImageFix" result="shape"/>
<feColorMatrix in="SourceAlpha" type="matrix" values="0 0 0 0 0 0 0 0 0 0 0 0 0 0 0 0 0 0 127 0" result="hardAlpha"/>
<feOffset/>
<feGaussianBlur stdDeviation="2.25"/>
<feComposite in2="hardAlpha" operator="arithmetic" k2="-1" k3="1"/>
<feColorMatrix type="matrix" values="0 0 0 0 0.776471 0 0 0 0 0.180392 0 0 0 0 0 0 0 0 1 0"/>
<feBlend mode="normal" in2="shape" result="effect1_innerShadow_12885_7457"/>
</filter>
<linearGradient id="paint0_linear_12885_7457" x1="44" y1="0" x2="44" y2="88" gradientUnits="userSpaceOnUse">
<stop stop-color="#FAEBE4"/>
<stop offset="1" stop-color="#FBF3E2"/>
</linearGradient>
</defs>
</svg>
