<svg width="88" height="88" viewBox="0 0 88 88" fill="none" xmlns="http://www.w3.org/2000/svg">
<g filter="url(#filter0_i_12885_7464)">
<path d="M0 36C0 19.0294 0 10.5442 5.27208 5.27208C10.5442 0 19.0294 0 36 0H52C68.9706 0 77.4558 0 82.7279 5.27208C88 10.5442 88 19.0294 88 36V52C88 68.9706 88 77.4558 82.7279 82.7279C77.4558 88 68.9706 88 52 88H36C19.0294 88 10.5442 88 5.27208 82.7279C0 77.4558 0 68.9706 0 52V36Z" fill="url(#paint0_linear_12885_7464)"/>
<g filter="url(#filter1_i_12885_7464)">
<path d="M56.2833 32.15L46.5166 27.8C45.0833 27.1666 42.9166 27.1666 41.4833 27.8L31.7166 32.15C29.25 33.25 28.8833 34.75 28.8833 35.55C28.8833 36.3499 29.25 37.85 31.7166 38.95L41.4833 43.2999C42.2 43.6166 43.1 43.7833 44 43.7833C44.9 43.7833 45.8 43.6166 46.5166 43.2999L56.2833 38.95C58.75 37.85 59.1166 36.3499 59.1166 35.55C59.1166 34.75 58.7666 33.25 56.2833 32.15Z" fill="#F8601F"/>
<path d="M44 52.3999C43.3667 52.3999 42.7334 52.2666 42.15 52.0166L30.9167 47.0166C29.2 46.2499 27.8667 44.1999 27.8667 42.3166C27.8667 41.6333 28.4167 41.0833 29.1 41.0833C29.7834 41.0833 30.3334 41.6333 30.3334 42.3166C30.3334 43.2166 31.0834 44.3833 31.9167 44.7499L43.15 49.7499C43.6834 49.9833 44.3 49.9833 44.8334 49.7499L56.0667 44.7499C56.9 44.3833 57.65 43.2333 57.65 42.3166C57.65 41.6333 58.2 41.0833 58.8834 41.0833C59.5667 41.0833 60.1167 41.6333 60.1167 42.3166C60.1167 44.1833 58.7834 46.2499 57.0667 47.0166L45.8334 52.0166C45.2667 52.2666 44.6334 52.3999 44 52.3999Z" fill="#F8601F"/>
<path d="M44 60.6668C43.3667 60.6668 42.7334 60.5334 42.15 60.2834L30.9167 55.2834C29.0667 54.4668 27.8667 52.6168 27.8667 50.5834C27.8667 49.9001 28.4167 49.3501 29.1 49.3501C29.7834 49.3501 30.3334 49.9001 30.3334 50.5834C30.3334 51.6334 30.95 52.5834 31.9167 53.0168L43.15 58.0168C43.6834 58.2501 44.3 58.2501 44.8334 58.0168L56.0667 53.0168C57.0167 52.6001 57.65 51.6334 57.65 50.5834C57.65 49.9001 58.2 49.3501 58.8834 49.3501C59.5667 49.3501 60.1167 49.9001 60.1167 50.5834C60.1167 52.6168 58.9167 54.4501 57.0667 55.2834L45.8334 60.2834C45.2667 60.5334 44.6334 60.6668 44 60.6668Z" fill="#F8601F"/>
</g>
</g>
<defs>
<filter id="filter0_i_12885_7464" x="0" y="0" width="88" height="88" filterUnits="userSpaceOnUse" color-interpolation-filters="sRGB">
<feFlood flood-opacity="0" result="BackgroundImageFix"/>
<feBlend mode="normal" in="SourceGraphic" in2="BackgroundImageFix" result="shape"/>
<feColorMatrix in="SourceAlpha" type="matrix" values="0 0 0 0 0 0 0 0 0 0 0 0 0 0 0 0 0 0 127 0" result="hardAlpha"/>
<feOffset/>
<feGaussianBlur stdDeviation="8.15"/>
<feComposite in2="hardAlpha" operator="arithmetic" k2="-1" k3="1"/>
<feColorMatrix type="matrix" values="0 0 0 0 0 0 0 0 0 0 0 0 0 0 0 0 0 0 0.08 0"/>
<feBlend mode="normal" in2="shape" result="effect1_innerShadow_12885_7464"/>
</filter>
<filter id="filter1_i_12885_7464" x="24" y="24" width="40" height="40" filterUnits="userSpaceOnUse" color-interpolation-filters="sRGB">
<feFlood flood-opacity="0" result="BackgroundImageFix"/>
<feBlend mode="normal" in="SourceGraphic" in2="BackgroundImageFix" result="shape"/>
<feColorMatrix in="SourceAlpha" type="matrix" values="0 0 0 0 0 0 0 0 0 0 0 0 0 0 0 0 0 0 127 0" result="hardAlpha"/>
<feOffset/>
<feGaussianBlur stdDeviation="2.25"/>
<feComposite in2="hardAlpha" operator="arithmetic" k2="-1" k3="1"/>
<feColorMatrix type="matrix" values="0 0 0 0 0.776471 0 0 0 0 0.180392 0 0 0 0 0 0 0 0 1 0"/>
<feBlend mode="normal" in2="shape" result="effect1_innerShadow_12885_7464"/>
</filter>
<linearGradient id="paint0_linear_12885_7464" x1="44" y1="0" x2="44" y2="88" gradientUnits="userSpaceOnUse">
<stop stop-color="#FAEBE4"/>
<stop offset="1" stop-color="#FBF3E2"/>
</linearGradient>
</defs>
</svg>
