<svg width="88" height="88" viewBox="0 0 88 88" fill="none" xmlns="http://www.w3.org/2000/svg">
<g filter="url(#filter0_i_12885_4037)">
<path d="M0 36C0 19.0294 0 10.5442 5.27208 5.27208C10.5442 0 19.0294 0 36 0H52C68.9706 0 77.4558 0 82.7279 5.27208C88 10.5442 88 19.0294 88 36V52C88 68.9706 88 77.4558 82.7279 82.7279C77.4558 88 68.9706 88 52 88H36C19.0294 88 10.5442 88 5.27208 82.7279C0 77.4558 0 68.9706 0 52V36Z" fill="url(#paint0_linear_12885_4037)"/>
<g filter="url(#filter1_i_12885_4037)">
<path d="M56.2165 33.4666L45.7665 27.8333C44.6665 27.2333 43.3331 27.2333 42.2331 27.8333L31.7831 33.4666C31.0165 33.8833 30.5498 34.6833 30.5498 35.6C30.5498 36.5 31.0165 37.3166 31.7831 37.7333L42.2331 43.3666C42.7831 43.6666 43.3998 43.8166 43.9998 43.8166C44.5998 43.8166 45.2165 43.6666 45.7665 43.3666L56.2165 37.7333C56.9831 37.3166 57.4498 36.5166 57.4498 35.6C57.4498 34.6833 56.9831 33.8833 56.2165 33.4666Z" fill="#F8601F"/>
<path d="M40.5168 45.3167L30.7835 40.4501C30.0335 40.0834 29.1668 40.1167 28.4668 40.5501C27.7502 41.0001 27.3335 41.7501 27.3335 42.5834V51.7667C27.3335 53.3501 28.2168 54.7834 29.6335 55.5001L39.3502 60.3667C39.6835 60.5334 40.0502 60.6167 40.4168 60.6167C40.8502 60.6167 41.2835 60.5001 41.6668 60.2667C42.3835 59.8334 42.8002 59.0667 42.8002 58.2334V49.0501C42.8168 47.4501 41.9335 46.0167 40.5168 45.3167Z" fill="#F8601F"/>
<path d="M59.5335 40.55C58.8169 40.1167 57.9502 40.0667 57.2169 40.45L47.5002 45.3167C46.0835 46.0333 45.2002 47.45 45.2002 49.05V58.2333C45.2002 59.0667 45.6169 59.8333 46.3335 60.2667C46.7169 60.5 47.1502 60.6167 47.5835 60.6167C47.9502 60.6167 48.3169 60.5333 48.6502 60.3667L58.3669 55.5C59.7835 54.7833 60.6669 53.3667 60.6669 51.7667V42.5833C60.6669 41.75 60.2502 41 59.5335 40.55Z" fill="#F8601F"/>
</g>
</g>
<defs>
<filter id="filter0_i_12885_4037" x="0" y="0" width="88" height="88" filterUnits="userSpaceOnUse" color-interpolation-filters="sRGB">
<feFlood flood-opacity="0" result="BackgroundImageFix"/>
<feBlend mode="normal" in="SourceGraphic" in2="BackgroundImageFix" result="shape"/>
<feColorMatrix in="SourceAlpha" type="matrix" values="0 0 0 0 0 0 0 0 0 0 0 0 0 0 0 0 0 0 127 0" result="hardAlpha"/>
<feOffset/>
<feGaussianBlur stdDeviation="8.15"/>
<feComposite in2="hardAlpha" operator="arithmetic" k2="-1" k3="1"/>
<feColorMatrix type="matrix" values="0 0 0 0 0 0 0 0 0 0 0 0 0 0 0 0 0 0 0.08 0"/>
<feBlend mode="normal" in2="shape" result="effect1_innerShadow_12885_4037"/>
</filter>
<filter id="filter1_i_12885_4037" x="24" y="24" width="40" height="40" filterUnits="userSpaceOnUse" color-interpolation-filters="sRGB">
<feFlood flood-opacity="0" result="BackgroundImageFix"/>
<feBlend mode="normal" in="SourceGraphic" in2="BackgroundImageFix" result="shape"/>
<feColorMatrix in="SourceAlpha" type="matrix" values="0 0 0 0 0 0 0 0 0 0 0 0 0 0 0 0 0 0 127 0" result="hardAlpha"/>
<feOffset/>
<feGaussianBlur stdDeviation="2.25"/>
<feComposite in2="hardAlpha" operator="arithmetic" k2="-1" k3="1"/>
<feColorMatrix type="matrix" values="0 0 0 0 0.776471 0 0 0 0 0.180392 0 0 0 0 0 0 0 0 1 0"/>
<feBlend mode="normal" in2="shape" result="effect1_innerShadow_12885_4037"/>
</filter>
<linearGradient id="paint0_linear_12885_4037" x1="44" y1="0" x2="44" y2="88" gradientUnits="userSpaceOnUse">
<stop stop-color="#FAEBE4"/>
<stop offset="1" stop-color="#FBF3E2"/>
</linearGradient>
</defs>
</svg>
