<svg width="88" height="88" viewBox="0 0 88 88" fill="none" xmlns="http://www.w3.org/2000/svg">
<g filter="url(#filter0_i_12885_4051)">
<path d="M0 36C0 19.0294 0 10.5442 5.27208 5.27208C10.5442 0 19.0294 0 36 0H52C68.9706 0 77.4558 0 82.7279 5.27208C88 10.5442 88 19.0294 88 36V52C88 68.9706 88 77.4558 82.7279 82.7279C77.4558 88 68.9706 88 52 88H36C19.0294 88 10.5442 88 5.27208 82.7279C0 77.4558 0 68.9706 0 52V36Z" fill="url(#paint0_linear_12885_4051)"/>
<g filter="url(#filter1_i_12885_4051)">
<path d="M28.3003 55.6833L28.267 55.7166C27.817 54.7333 27.5337 53.6166 27.417 52.3833C27.5337 53.6 27.8503 54.7 28.3003 55.6833Z" fill="#F8601F"/>
<path d="M38.9999 41.3C41.1906 41.3 42.9665 39.5241 42.9665 37.3334C42.9665 35.1426 41.1906 33.3667 38.9999 33.3667C36.8091 33.3667 35.0332 35.1426 35.0332 37.3334C35.0332 39.5241 36.8091 41.3 38.9999 41.3Z" fill="#F8601F"/>
<path d="M50.983 27.3335H37.0163C30.9497 27.3335 27.333 30.9502 27.333 37.0168V50.9835C27.333 52.8002 27.6497 54.3835 28.2663 55.7168C29.6997 58.8835 32.7663 60.6668 37.0163 60.6668H50.983C57.0497 60.6668 60.6663 57.0502 60.6663 50.9835V47.1668V37.0168C60.6663 30.9502 57.0497 27.3335 50.983 27.3335ZM57.9497 44.8335C56.6497 43.7168 54.5497 43.7168 53.2497 44.8335L46.3163 50.7835C45.0163 51.9002 42.9163 51.9002 41.6163 50.7835L41.0497 50.3168C39.8663 49.2835 37.983 49.1835 36.6497 50.0835L30.4163 54.2668C30.0497 53.3335 29.833 52.2502 29.833 50.9835V37.0168C29.833 32.3168 32.3163 29.8335 37.0163 29.8335H50.983C55.683 29.8335 58.1663 32.3168 58.1663 37.0168V45.0168L57.9497 44.8335Z" fill="#F8601F"/>
</g>
</g>
<defs>
<filter id="filter0_i_12885_4051" x="0" y="0" width="88" height="88" filterUnits="userSpaceOnUse" color-interpolation-filters="sRGB">
<feFlood flood-opacity="0" result="BackgroundImageFix"/>
<feBlend mode="normal" in="SourceGraphic" in2="BackgroundImageFix" result="shape"/>
<feColorMatrix in="SourceAlpha" type="matrix" values="0 0 0 0 0 0 0 0 0 0 0 0 0 0 0 0 0 0 127 0" result="hardAlpha"/>
<feOffset/>
<feGaussianBlur stdDeviation="8.15"/>
<feComposite in2="hardAlpha" operator="arithmetic" k2="-1" k3="1"/>
<feColorMatrix type="matrix" values="0 0 0 0 0 0 0 0 0 0 0 0 0 0 0 0 0 0 0.08 0"/>
<feBlend mode="normal" in2="shape" result="effect1_innerShadow_12885_4051"/>
</filter>
<filter id="filter1_i_12885_4051" x="24" y="24" width="40" height="40" filterUnits="userSpaceOnUse" color-interpolation-filters="sRGB">
<feFlood flood-opacity="0" result="BackgroundImageFix"/>
<feBlend mode="normal" in="SourceGraphic" in2="BackgroundImageFix" result="shape"/>
<feColorMatrix in="SourceAlpha" type="matrix" values="0 0 0 0 0 0 0 0 0 0 0 0 0 0 0 0 0 0 127 0" result="hardAlpha"/>
<feOffset/>
<feGaussianBlur stdDeviation="2.25"/>
<feComposite in2="hardAlpha" operator="arithmetic" k2="-1" k3="1"/>
<feColorMatrix type="matrix" values="0 0 0 0 0.776471 0 0 0 0 0.180392 0 0 0 0 0 0 0 0 1 0"/>
<feBlend mode="normal" in2="shape" result="effect1_innerShadow_12885_4051"/>
</filter>
<linearGradient id="paint0_linear_12885_4051" x1="44" y1="0" x2="44" y2="88" gradientUnits="userSpaceOnUse">
<stop stop-color="#FAEBE4"/>
<stop offset="1" stop-color="#FBF3E2"/>
</linearGradient>
</defs>
</svg>
