<svg width="88" height="88" viewBox="0 0 88 88" fill="none" xmlns="http://www.w3.org/2000/svg">
<g filter="url(#filter0_i_12885_4086)">
<path d="M0 36C0 19.0294 0 10.5442 5.27208 5.27208C10.5442 0 19.0294 0 36 0H52C68.9706 0 77.4558 0 82.7279 5.27208C88 10.5442 88 19.0294 88 36V52C88 68.9706 88 77.4558 82.7279 82.7279C77.4558 88 68.9706 88 52 88H36C19.0294 88 10.5442 88 5.27208 82.7279C0 77.4558 0 68.9706 0 52V36Z" fill="url(#paint0_linear_12885_4086)"/>
<g filter="url(#filter1_i_12885_4086)">
<path d="M51.3999 29.1667C48.3833 29.1667 45.6833 30.6334 43.9999 32.8834C42.3166 30.6334 39.6166 29.1667 36.5999 29.1667C31.4833 29.1667 27.3333 33.3334 27.3333 38.4834C27.3333 40.4667 27.6499 42.3001 28.1999 44.0001C30.8333 52.3334 38.9499 57.3167 42.9666 58.6834C43.5333 58.8834 44.4666 58.8834 45.0333 58.6834C49.0499 57.3167 57.1666 52.3334 59.7999 44.0001C60.3499 42.3001 60.6666 40.4667 60.6666 38.4834C60.6666 33.3334 56.5166 29.1667 51.3999 29.1667Z" fill="#F8601F"/>
</g>
</g>
<defs>
<filter id="filter0_i_12885_4086" x="0" y="0" width="88" height="88" filterUnits="userSpaceOnUse" color-interpolation-filters="sRGB">
<feFlood flood-opacity="0" result="BackgroundImageFix"/>
<feBlend mode="normal" in="SourceGraphic" in2="BackgroundImageFix" result="shape"/>
<feColorMatrix in="SourceAlpha" type="matrix" values="0 0 0 0 0 0 0 0 0 0 0 0 0 0 0 0 0 0 127 0" result="hardAlpha"/>
<feOffset/>
<feGaussianBlur stdDeviation="8.15"/>
<feComposite in2="hardAlpha" operator="arithmetic" k2="-1" k3="1"/>
<feColorMatrix type="matrix" values="0 0 0 0 0 0 0 0 0 0 0 0 0 0 0 0 0 0 0.08 0"/>
<feBlend mode="normal" in2="shape" result="effect1_innerShadow_12885_4086"/>
</filter>
<filter id="filter1_i_12885_4086" x="24" y="24" width="40" height="40" filterUnits="userSpaceOnUse" color-interpolation-filters="sRGB">
<feFlood flood-opacity="0" result="BackgroundImageFix"/>
<feBlend mode="normal" in="SourceGraphic" in2="BackgroundImageFix" result="shape"/>
<feColorMatrix in="SourceAlpha" type="matrix" values="0 0 0 0 0 0 0 0 0 0 0 0 0 0 0 0 0 0 127 0" result="hardAlpha"/>
<feOffset/>
<feGaussianBlur stdDeviation="2.25"/>
<feComposite in2="hardAlpha" operator="arithmetic" k2="-1" k3="1"/>
<feColorMatrix type="matrix" values="0 0 0 0 0.776471 0 0 0 0 0.180392 0 0 0 0 0 0 0 0 1 0"/>
<feBlend mode="normal" in2="shape" result="effect1_innerShadow_12885_4086"/>
</filter>
<linearGradient id="paint0_linear_12885_4086" x1="44" y1="0" x2="44" y2="88" gradientUnits="userSpaceOnUse">
<stop stop-color="#FAEBE4"/>
<stop offset="1" stop-color="#FBF3E2"/>
</linearGradient>
</defs>
</svg>
