<svg width="88" height="88" viewBox="0 0 88 88" fill="none" xmlns="http://www.w3.org/2000/svg">
<g filter="url(#filter0_i_12885_4101)">
<path d="M0 36C0 19.0294 0 10.5442 5.27208 5.27208C10.5442 0 19.0294 0 36 0H52C68.9706 0 77.4558 0 82.7279 5.27208C88 10.5442 88 19.0294 88 36V52C88 68.9706 88 77.4558 82.7279 82.7279C77.4558 88 68.9706 88 52 88H36C19.0294 88 10.5442 88 5.27208 82.7279C0 77.4558 0 68.9706 0 52V36Z" fill="url(#paint0_linear_12885_4101)"/>
<g filter="url(#filter1_i_12885_4101)">
<path d="M50.9833 27.3333H37.0166C30.9499 27.3333 27.3333 30.9499 27.3333 37.0166V50.9666C27.3333 57.0499 30.9499 60.6666 37.0166 60.6666H50.9666C57.0333 60.6666 60.6499 57.0499 60.6499 50.9833V37.0166C60.6666 30.9499 57.0499 27.3333 50.9833 27.3333ZM34.7833 36.8666C35.2666 36.3833 36.0666 36.3833 36.5499 36.8666C37.7333 38.0499 39.6666 38.0499 40.8499 36.8666C41.3333 36.3833 42.1333 36.3833 42.6166 36.8666C43.0999 37.3499 43.0999 38.1499 42.6166 38.6333C41.5333 39.7166 40.1166 40.2499 38.6999 40.2499C37.2833 40.2499 35.8666 39.7166 34.7833 38.6333C34.2999 38.1333 34.2999 37.3499 34.7833 36.8666ZM43.9999 55.2999C39.5166 55.2999 35.8666 51.6499 35.8666 47.1666C35.8666 45.9999 36.8166 45.0333 37.9833 45.0333H49.9833C51.1499 45.0333 52.0999 45.9833 52.0999 47.1666C52.1333 51.6499 48.4833 55.2999 43.9999 55.2999ZM53.2166 38.6333C52.1333 39.7166 50.7166 40.2499 49.2999 40.2499C47.8833 40.2499 46.4666 39.7166 45.3833 38.6333C44.8999 38.1499 44.8999 37.3499 45.3833 36.8666C45.8666 36.3833 46.6666 36.3833 47.1499 36.8666C48.3333 38.0499 50.2666 38.0499 51.4499 36.8666C51.9333 36.3833 52.7333 36.3833 53.2166 36.8666C53.6999 37.3499 53.6999 38.1333 53.2166 38.6333Z" fill="#F8601F"/>
</g>
</g>
<defs>
<filter id="filter0_i_12885_4101" x="0" y="0" width="88" height="88" filterUnits="userSpaceOnUse" color-interpolation-filters="sRGB">
<feFlood flood-opacity="0" result="BackgroundImageFix"/>
<feBlend mode="normal" in="SourceGraphic" in2="BackgroundImageFix" result="shape"/>
<feColorMatrix in="SourceAlpha" type="matrix" values="0 0 0 0 0 0 0 0 0 0 0 0 0 0 0 0 0 0 127 0" result="hardAlpha"/>
<feOffset/>
<feGaussianBlur stdDeviation="8.15"/>
<feComposite in2="hardAlpha" operator="arithmetic" k2="-1" k3="1"/>
<feColorMatrix type="matrix" values="0 0 0 0 0 0 0 0 0 0 0 0 0 0 0 0 0 0 0.08 0"/>
<feBlend mode="normal" in2="shape" result="effect1_innerShadow_12885_4101"/>
</filter>
<filter id="filter1_i_12885_4101" x="24" y="24" width="40" height="40" filterUnits="userSpaceOnUse" color-interpolation-filters="sRGB">
<feFlood flood-opacity="0" result="BackgroundImageFix"/>
<feBlend mode="normal" in="SourceGraphic" in2="BackgroundImageFix" result="shape"/>
<feColorMatrix in="SourceAlpha" type="matrix" values="0 0 0 0 0 0 0 0 0 0 0 0 0 0 0 0 0 0 127 0" result="hardAlpha"/>
<feOffset/>
<feGaussianBlur stdDeviation="2.25"/>
<feComposite in2="hardAlpha" operator="arithmetic" k2="-1" k3="1"/>
<feColorMatrix type="matrix" values="0 0 0 0 0.776471 0 0 0 0 0.180392 0 0 0 0 0 0 0 0 1 0"/>
<feBlend mode="normal" in2="shape" result="effect1_innerShadow_12885_4101"/>
</filter>
<linearGradient id="paint0_linear_12885_4101" x1="44" y1="0" x2="44" y2="88" gradientUnits="userSpaceOnUse">
<stop stop-color="#FAEBE4"/>
<stop offset="1" stop-color="#FBF3E2"/>
</linearGradient>
</defs>
</svg>
