<svg width="88" height="88" viewBox="0 0 88 88" fill="none" xmlns="http://www.w3.org/2000/svg">
<g filter="url(#filter0_i_12885_4107)">
<path d="M0 36C0 19.0294 0 10.5442 5.27208 5.27208C10.5442 0 19.0294 0 36 0H52C68.9706 0 77.4558 0 82.7279 5.27208C88 10.5442 88 19.0294 88 36V52C88 68.9706 88 77.4558 82.7279 82.7279C77.4558 88 68.9706 88 52 88H36C19.0294 88 10.5442 88 5.27208 82.7279C0 77.4558 0 68.9706 0 52V36Z" fill="url(#paint0_linear_12885_4107)"/>
<g filter="url(#filter1_i_12885_4107)">
<path d="M57.9334 45.2168C57.3167 45.2168 56.8001 44.7501 56.7334 44.1335C56.3334 40.4668 54.3667 37.1668 51.3334 35.0668C50.7834 34.6835 50.6501 33.9335 51.0334 33.3835C51.4167 32.8335 52.1667 32.7001 52.7167 33.0835C56.3334 35.6001 58.6667 39.5335 59.1501 43.8835C59.2167 44.5501 58.7334 45.1501 58.0667 45.2168C58.0167 45.2168 57.9834 45.2168 57.9334 45.2168Z" fill="#F8601F"/>
<path d="M30.2332 45.3001C30.1999 45.3001 30.1499 45.3001 30.1166 45.3001C29.4499 45.2334 28.9666 44.6334 29.0332 43.9668C29.4832 39.6168 31.7832 35.6834 35.3666 33.1501C35.8999 32.7668 36.6666 32.9001 37.0499 33.4334C37.4332 33.9834 37.2999 34.7334 36.7666 35.1168C33.7666 37.2501 31.8166 40.5501 31.4499 44.2001C31.3832 44.8334 30.8499 45.3001 30.2332 45.3001Z" fill="#F8601F"/>
<path d="M50.6499 59.1667C48.5999 60.15 46.3999 60.65 44.0999 60.65C41.6999 60.65 39.4166 60.1167 37.2833 59.0333C36.6833 58.75 36.4499 58.0167 36.7499 57.4167C37.0333 56.8167 37.7666 56.5833 38.3666 56.8667C39.4166 57.4 40.5333 57.7667 41.6666 57.9833C43.1999 58.2833 44.7666 58.3 46.2999 58.0333C47.4333 57.8333 48.5499 57.4833 49.5833 56.9833C50.1999 56.7 50.9333 56.9333 51.1999 57.55C51.4999 58.15 51.2666 58.8833 50.6499 59.1667Z" fill="#F8601F"/>
<path d="M44.0833 27.3501C41.5 27.3501 39.3833 29.4501 39.3833 32.0501C39.3833 34.6501 41.4833 36.7501 44.0833 36.7501C46.6833 36.7501 48.7833 34.6501 48.7833 32.0501C48.7833 29.4501 46.6833 27.3501 44.0833 27.3501Z" fill="#F8601F"/>
<path d="M32.4166 47.1167C29.8332 47.1167 27.7166 49.2167 27.7166 51.8167C27.7166 54.4167 29.8166 56.5167 32.4166 56.5167C35.0166 56.5167 37.1166 54.4167 37.1166 51.8167C37.1166 49.2167 34.9999 47.1167 32.4166 47.1167Z" fill="#F8601F"/>
<path d="M55.5833 47.1167C53 47.1167 50.8833 49.2167 50.8833 51.8167C50.8833 54.4167 52.9833 56.5167 55.5833 56.5167C58.1833 56.5167 60.2833 54.4167 60.2833 51.8167C60.2833 49.2167 58.1833 47.1167 55.5833 47.1167Z" fill="#F8601F"/>
</g>
</g>
<defs>
<filter id="filter0_i_12885_4107" x="0" y="0" width="88" height="88" filterUnits="userSpaceOnUse" color-interpolation-filters="sRGB">
<feFlood flood-opacity="0" result="BackgroundImageFix"/>
<feBlend mode="normal" in="SourceGraphic" in2="BackgroundImageFix" result="shape"/>
<feColorMatrix in="SourceAlpha" type="matrix" values="0 0 0 0 0 0 0 0 0 0 0 0 0 0 0 0 0 0 127 0" result="hardAlpha"/>
<feOffset/>
<feGaussianBlur stdDeviation="8.15"/>
<feComposite in2="hardAlpha" operator="arithmetic" k2="-1" k3="1"/>
<feColorMatrix type="matrix" values="0 0 0 0 0 0 0 0 0 0 0 0 0 0 0 0 0 0 0.08 0"/>
<feBlend mode="normal" in2="shape" result="effect1_innerShadow_12885_4107"/>
</filter>
<filter id="filter1_i_12885_4107" x="24" y="24" width="40" height="40" filterUnits="userSpaceOnUse" color-interpolation-filters="sRGB">
<feFlood flood-opacity="0" result="BackgroundImageFix"/>
<feBlend mode="normal" in="SourceGraphic" in2="BackgroundImageFix" result="shape"/>
<feColorMatrix in="SourceAlpha" type="matrix" values="0 0 0 0 0 0 0 0 0 0 0 0 0 0 0 0 0 0 127 0" result="hardAlpha"/>
<feOffset/>
<feGaussianBlur stdDeviation="2.25"/>
<feComposite in2="hardAlpha" operator="arithmetic" k2="-1" k3="1"/>
<feColorMatrix type="matrix" values="0 0 0 0 0.776471 0 0 0 0 0.180392 0 0 0 0 0 0 0 0 1 0"/>
<feBlend mode="normal" in2="shape" result="effect1_innerShadow_12885_4107"/>
</filter>
<linearGradient id="paint0_linear_12885_4107" x1="44" y1="0" x2="44" y2="88" gradientUnits="userSpaceOnUse">
<stop stop-color="#FAEBE4"/>
<stop offset="1" stop-color="#FBF3E2"/>
</linearGradient>
</defs>
</svg>
