<svg width="88" height="88" viewBox="0 0 88 88" fill="none" xmlns="http://www.w3.org/2000/svg">
<g filter="url(#filter0_i_12885_6106)">
<path d="M0 36C0 19.0294 0 10.5442 5.27208 5.27208C10.5442 0 19.0294 0 36 0H52C68.9706 0 77.4558 0 82.7279 5.27208C88 10.5442 88 19.0294 88 36V52C88 68.9706 88 77.4558 82.7279 82.7279C77.4558 88 68.9706 88 52 88H36C19.0294 88 10.5442 88 5.27208 82.7279C0 77.4558 0 68.9706 0 52V36Z" fill="url(#paint0_linear_12885_6106)"/>
<path d="M50.9002 28.9334L35.8502 33.9334C25.7335 37.3167 25.7335 42.8334 35.8502 46.2001L40.3169 47.6834L41.8002 52.1501C45.1669 62.2667 50.7002 62.2667 54.0669 52.1501L59.0835 37.1167C61.3169 30.3667 57.6502 26.6834 50.9002 28.9334ZM51.4335 37.9001L45.1002 44.2667C44.8502 44.5167 44.5335 44.6334 44.2169 44.6334C43.9002 44.6334 43.5835 44.5167 43.3335 44.2667C42.8502 43.7834 42.8502 42.9834 43.3335 42.5001L49.6669 36.1334C50.1502 35.6501 50.9502 35.6501 51.4335 36.1334C51.9169 36.6167 51.9169 37.4167 51.4335 37.9001Z" fill="#F8601F"/>
</g>
<defs>
<filter id="filter0_i_12885_6106" x="0" y="0" width="88" height="88" filterUnits="userSpaceOnUse" color-interpolation-filters="sRGB">
<feFlood flood-opacity="0" result="BackgroundImageFix"/>
<feBlend mode="normal" in="SourceGraphic" in2="BackgroundImageFix" result="shape"/>
<feColorMatrix in="SourceAlpha" type="matrix" values="0 0 0 0 0 0 0 0 0 0 0 0 0 0 0 0 0 0 127 0" result="hardAlpha"/>
<feOffset/>
<feGaussianBlur stdDeviation="8.15"/>
<feComposite in2="hardAlpha" operator="arithmetic" k2="-1" k3="1"/>
<feColorMatrix type="matrix" values="0 0 0 0 0 0 0 0 0 0 0 0 0 0 0 0 0 0 0.08 0"/>
<feBlend mode="normal" in2="shape" result="effect1_innerShadow_12885_6106"/>
</filter>
<linearGradient id="paint0_linear_12885_6106" x1="44" y1="0" x2="44" y2="88" gradientUnits="userSpaceOnUse">
<stop stop-color="#FAEBE4"/>
<stop offset="1" stop-color="#FBF3E2"/>
</linearGradient>
</defs>
</svg>
