<svg width="191" height="100" viewBox="0 0 191 100" fill="none" xmlns="http://www.w3.org/2000/svg">
<g clip-path="url(#clip0_11975_5820)">
<g clip-path="url(#clip1_11975_5820)">
<path d="M58.7386 51.1156V50.6428C58.7386 49.4547 58.3319 48.5454 57.5187 47.9149C56.7301 47.2603 55.695 46.9329 54.4135 46.9329C53.4278 46.9329 52.6515 47.1026 52.0846 47.4421C51.5425 47.7573 51.0249 48.2423 50.5321 48.897C50.3842 49.0909 50.224 49.2243 50.0515 49.2971C49.8789 49.3698 49.6448 49.4062 49.3491 49.4062H48.2402C47.9691 49.4062 47.7226 49.3092 47.5008 49.1152C47.3037 48.9213 47.2174 48.6909 47.242 48.4241C47.316 47.6967 47.6733 46.9814 48.3141 46.2783C48.9795 45.5508 49.8544 44.9568 50.9387 44.496C52.023 44.0353 53.1813 43.8049 54.4135 43.8049C56.7054 43.8049 58.5537 44.4354 59.9585 45.6962C61.3878 46.9572 62.1025 48.7273 62.1025 51.0065V62.0999C62.1025 62.3666 62.0039 62.597 61.8068 62.791C61.6096 62.9849 61.3755 63.0819 61.1044 63.0819H59.7367C59.4656 63.0819 59.2314 62.9849 59.0343 62.791C58.8371 62.597 58.7386 62.3666 58.7386 62.0999V60.6087C58.3443 61.4816 57.5063 62.1727 56.2249 62.6819C54.9433 63.1911 53.6619 63.4457 52.3804 63.4457C51.1235 63.4457 50.0022 63.2274 49.0164 62.791C48.0306 62.3302 47.2667 61.7119 46.7245 60.936C46.207 60.1601 45.9482 59.2872 45.9482 58.3172C45.9482 56.4987 46.6383 55.0802 48.0183 54.0618C49.3984 53.0191 51.2344 52.3159 53.5263 51.9522L58.7386 51.1156ZM58.7386 54.0254L54.3766 54.7165C52.7747 54.9589 51.5301 55.359 50.643 55.9167C49.7557 56.4502 49.3122 57.1291 49.3122 57.9535C49.3122 58.5597 49.5956 59.1053 50.1624 59.5902C50.7292 60.0752 51.5918 60.3177 52.75 60.3177C54.5244 60.3177 55.9661 59.8206 57.075 58.8265C58.1841 57.8323 58.7386 56.535 58.7386 54.9346V54.0254Z" fill="#0C0C0E"/>
<path d="M70.86 62.0999C70.86 62.3666 70.7611 62.597 70.564 62.791C70.3668 62.9849 70.1331 63.0819 69.8615 63.0819H68.4939C68.2229 63.0819 67.9885 62.9849 67.7914 62.791C67.5943 62.597 67.4961 62.3666 67.4961 62.0999V38.2401C67.4961 37.9734 67.5943 37.7431 67.7914 37.5491C67.9885 37.3551 68.2229 37.2581 68.4939 37.2581H69.8615C70.1331 37.2581 70.3668 37.3551 70.564 37.5491C70.7611 37.7431 70.86 37.9734 70.86 38.2401V62.0999Z" fill="#0C0C0E"/>
<path d="M84.176 60.3179C86.6403 60.3179 88.304 59.3723 89.1669 57.481C89.339 57.1172 89.5117 56.8627 89.6845 56.7172C89.8565 56.5717 90.0909 56.4989 90.3862 56.4989H91.4958C91.7667 56.4989 92.0004 56.5959 92.1976 56.7899C92.3953 56.9596 92.4936 57.1657 92.4936 57.4082C92.4936 58.2326 92.161 59.1177 91.4958 60.0633C90.8299 61.009 89.8687 61.8092 88.6122 62.4639C87.3556 63.1185 85.8769 63.4459 84.176 63.4459C82.4263 63.4459 80.911 63.0822 79.6294 62.3547C78.3478 61.6273 77.3622 60.6332 76.672 59.3723C75.9817 58.0872 75.6003 56.6565 75.5258 55.0804C75.5015 54.7895 75.4893 54.2318 75.4893 53.4073C75.4893 52.8254 75.5015 52.4131 75.5258 52.1707C75.748 49.6974 76.5981 47.6848 78.0769 46.133C79.5556 44.5811 81.5884 43.8052 84.176 43.8052C85.8769 43.8052 87.3428 44.1326 88.5749 44.7872C89.8321 45.4177 90.7811 46.2057 91.4213 47.1514C92.0871 48.0728 92.4441 48.9458 92.4936 49.7701C92.518 50.0369 92.4197 50.2673 92.1976 50.4612C92.0004 50.6552 91.7667 50.7522 91.4958 50.7522H90.3862C90.0909 50.7522 89.8565 50.6794 89.6845 50.5339C89.5117 50.3884 89.339 50.1339 89.1669 49.7701C88.304 47.8788 86.6403 46.9332 84.176 46.9332C82.8206 46.9332 81.6378 47.3818 80.6272 48.2789C79.6172 49.1761 79.0381 50.5339 78.8897 52.3525C78.8653 52.6193 78.8531 53.0557 78.8531 53.6619C78.8531 54.2196 78.8653 54.6318 78.8897 54.8986C79.0624 56.7172 79.6416 58.075 80.6272 58.9722C81.6378 59.8693 82.8206 60.3179 84.176 60.3179Z" fill="#0C0C0E"/>
<path d="M113.996 62.0999C113.996 62.3666 113.898 62.597 113.7 62.791C113.503 62.9849 113.269 63.0819 112.998 63.0819H111.63C111.359 63.0819 111.125 62.9849 110.928 62.791C110.73 62.597 110.632 62.3666 110.632 62.0999V52.4978C110.632 50.6792 110.176 49.2971 109.265 48.3514C108.353 47.4058 107.083 46.933 105.457 46.933C103.855 46.933 102.586 47.4058 101.649 48.3514C100.738 49.2971 100.282 50.6792 100.282 52.4978V62.0999C100.282 62.3666 100.183 62.597 99.9858 62.791C99.7887 62.9849 99.5543 63.0819 99.2834 63.0819H97.9158C97.6448 63.0819 97.4104 62.9849 97.2133 62.791C97.0162 62.597 96.918 62.3666 96.918 62.0999V38.2401C96.918 37.9734 97.0162 37.7431 97.2133 37.5491C97.4104 37.3551 97.6448 37.2581 97.9158 37.2581H99.2834C99.5543 37.2581 99.7887 37.3551 99.9858 37.5491C100.183 37.7431 100.282 37.9734 100.282 38.2401V46.2783C100.824 45.5751 101.563 44.9931 102.5 44.5324C103.461 44.0475 104.631 43.8049 106.011 43.8049C107.564 43.8049 108.944 44.1323 110.152 44.787C111.359 45.4417 112.296 46.3873 112.961 47.624C113.651 48.8364 113.996 50.2792 113.996 51.9522V62.0999Z" fill="#0C0C0E"/>
<path d="M126.949 43.8049C129.586 43.8049 131.669 44.6294 133.197 46.2783C134.725 47.9271 135.489 50.17 135.489 53.007V53.989C135.489 54.2558 135.39 54.4861 135.193 54.6801C134.996 54.8741 134.761 54.971 134.491 54.971H121.774V55.1893C121.823 56.7897 122.317 58.0505 123.253 58.9719C124.214 59.8691 125.446 60.3177 126.949 60.3177C128.181 60.3177 129.13 60.1601 129.796 59.8449C130.486 59.5296 131.102 59.081 131.644 58.4991C131.841 58.3051 132.014 58.1718 132.162 58.099C132.334 58.0263 132.556 57.9899 132.827 57.9899H133.936C134.232 57.9899 134.478 58.0869 134.675 58.2808C134.873 58.4748 134.959 58.7052 134.934 58.9719C134.835 59.6266 134.466 60.3055 133.825 61.0087C133.209 61.6877 132.309 62.2696 131.127 62.7546C129.968 63.2153 128.576 63.4457 126.949 63.4457C125.372 63.4457 123.967 63.094 122.735 62.3909C121.503 61.6634 120.517 60.6693 119.778 59.4084C119.063 58.1475 118.632 56.729 118.484 55.1529C118.435 54.4255 118.41 53.8678 118.41 53.4798C118.41 53.0918 118.435 52.5341 118.484 51.8067C118.632 50.3033 119.063 48.9455 119.778 47.7331C120.517 46.5207 121.491 45.5629 122.699 44.8598C123.931 44.1566 125.348 43.8049 126.949 43.8049ZM132.162 51.9158V51.8067C132.162 50.3276 131.681 49.1516 130.72 48.2787C129.783 47.3815 128.527 46.9329 126.949 46.9329C125.52 46.9329 124.3 47.3815 123.29 48.2787C122.304 49.1758 121.799 50.3518 121.774 51.8067V51.9158H132.162Z" fill="#0C0C0E"/>
<path d="M143.312 46.2783C143.903 45.5266 144.569 44.9325 145.308 44.496C146.048 44.0353 147.034 43.8049 148.266 43.8049C151.149 43.8049 153.17 44.8598 154.328 46.9693C155.043 45.9509 155.856 45.1749 156.768 44.6415C157.68 44.0838 158.875 43.8049 160.354 43.8049C162.769 43.8049 164.555 44.5202 165.714 45.9509C166.897 47.3815 167.489 49.4062 167.489 52.025V62.0999C167.489 62.3666 167.39 62.597 167.193 62.791C166.995 62.9849 166.761 63.0819 166.49 63.0819H165.122C164.851 63.0819 164.617 62.9849 164.42 62.791C164.223 62.597 164.124 62.3666 164.124 62.0999V52.3886C164.124 48.7515 162.67 46.9329 159.762 46.9329C158.431 46.9329 157.372 47.3694 156.583 48.2423C155.794 49.1152 155.4 50.4124 155.4 52.1341V62.0999C155.4 62.3666 155.302 62.597 155.105 62.791C154.908 62.9849 154.673 63.0819 154.402 63.0819H153.035C152.764 63.0819 152.529 62.9849 152.332 62.791C152.135 62.597 152.036 62.3666 152.036 62.0999V52.3886C152.036 48.7515 150.582 46.9329 147.674 46.9329C146.343 46.9329 145.284 47.3694 144.496 48.2423C143.706 49.1152 143.312 50.4124 143.312 52.1341V62.0999C143.312 62.3666 143.214 62.597 143.017 62.791C142.82 62.9849 142.585 63.0819 142.314 63.0819H140.947C140.675 63.0819 140.441 62.9849 140.244 62.791C140.047 62.597 139.948 62.3666 139.948 62.0999V45.1507C139.948 44.884 140.047 44.6536 140.244 44.4596C140.441 44.2657 140.675 44.1687 140.947 44.1687H142.314C142.585 44.1687 142.82 44.2657 143.017 44.4596C143.214 44.6536 143.312 44.884 143.312 45.1507V46.2783Z" fill="#0C0C0E"/>
<path d="M177.842 69.1196C177.619 69.7016 177.262 69.9926 176.769 69.9926H175.254C175.007 69.9926 174.797 69.9077 174.625 69.738C174.453 69.5682 174.367 69.3621 174.367 69.1196C174.367 69.0226 174.379 68.9378 174.403 68.865L177.952 61.2634L170.633 45.2962C170.609 45.2235 170.596 45.1386 170.596 45.0416C170.596 44.7991 170.682 44.593 170.854 44.4233C171.027 44.2536 171.237 44.1687 171.483 44.1687H172.999C173.492 44.1687 173.849 44.4596 174.071 45.0416L179.763 57.408L185.531 45.0416C185.752 44.4596 186.11 44.1687 186.602 44.1687H188.118C188.365 44.1687 188.574 44.2536 188.746 44.4233C188.919 44.593 189.005 44.7991 189.005 45.0416C189.005 45.1386 188.993 45.2235 188.968 45.2962L177.842 69.1196Z" fill="#0C0C0E"/>
<path d="M31.9716 51.0497L19.559 29.9955C19.4989 29.8915 19.4119 29.8049 19.3067 29.7444C19.2015 29.6839 19.0819 29.6517 18.9599 29.6509C18.8379 29.6501 18.7179 29.6809 18.6119 29.7401C18.506 29.7992 18.4178 29.8847 18.3564 29.988L14.6389 36.2967C14.5172 36.5032 14.4531 36.7375 14.4531 36.9759C14.4531 37.2143 14.5172 37.4487 14.6389 37.6551L22.7327 51.3902C22.8546 51.5969 23.0299 51.7686 23.2411 51.8878C23.4522 52.0071 23.6917 52.0697 23.9354 52.0695H31.3703C31.492 52.0691 31.6115 52.0375 31.7168 51.9777C31.8221 51.918 31.9096 51.8322 31.9704 51.7289C32.0313 51.6258 32.0634 51.5087 32.0636 51.3895C32.0638 51.2703 32.0321 51.1531 31.9716 51.0497Z" fill="#363FF9"/>
<path d="M-0.565419 62.0533L11.8471 40.9991C11.908 40.896 11.9956 40.8104 12.101 40.7508C12.2063 40.6913 12.3258 40.6599 12.4475 40.6599C12.5691 40.6599 12.6887 40.6913 12.794 40.7508C12.8994 40.8104 12.987 40.896 13.0478 40.9991L16.7672 47.3022C16.8889 47.5091 16.953 47.7436 16.953 47.9823C16.953 48.2211 16.8889 48.4557 16.7672 48.6626L8.67339 62.3976C8.552 62.6043 8.37703 62.776 8.16623 62.8952C7.95543 63.0145 7.71618 63.0772 7.47266 63.0768H0.0358996C-0.0866062 63.0774 -0.207085 63.0463 -0.313291 62.9865C-0.419497 62.9267 -0.507629 62.8404 -0.568726 62.7364C-0.629823 62.6324 -0.661708 62.5144 -0.661125 62.3944C-0.660542 62.2744 -0.627524 62.1567 -0.565419 62.0533Z" fill="#363FF9"/>
<path d="M13.0463 63.0723H37.8715C37.9932 63.0722 38.1128 63.0407 38.2182 62.9809C38.3236 62.9212 38.4111 62.8353 38.4719 62.7319C38.5326 62.6286 38.5645 62.5114 38.5644 62.3921C38.5642 62.2728 38.5319 62.1557 38.4709 62.0525L34.7573 55.7457C34.6354 55.5389 34.4601 55.3673 34.249 55.2481C34.0379 55.1289 33.7983 55.0662 33.5546 55.0664H17.367C17.1233 55.0662 16.8838 55.1289 16.6727 55.2481C16.4616 55.3673 16.2863 55.5389 16.1644 55.7457L12.447 62.0525C12.3859 62.1557 12.3537 62.2728 12.3535 62.3921C12.3533 62.5114 12.3852 62.6286 12.4459 62.7319C12.5067 62.8353 12.5942 62.9212 12.6996 62.9809C12.805 63.0407 12.9245 63.0722 13.0463 63.0723Z" fill="#363FF9"/>
</g>
</g>
<defs>
<clipPath id="clip0_11975_5820">
<rect width="191" height="100" fill="white"/>
</clipPath>
<clipPath id="clip1_11975_5820">
<rect width="189.667" height="40.6429" fill="white" transform="translate(-0.661133 29.5)"/>
</clipPath>
</defs>
</svg>
