<svg width="191" height="100" viewBox="0 0 191 100" fill="none" xmlns="http://www.w3.org/2000/svg">
<g clip-path="url(#clip0_12096_16636)">
<g clip-path="url(#clip1_12096_16636)">
<path fill-rule="evenodd" clip-rule="evenodd" d="M10.0929 35.5C10.8273 35.5 11.4227 36.0954 11.4227 36.8298V39.9812C11.4227 40.7156 10.8273 41.311 10.0929 41.311H7.14071C6.40631 41.311 5.81096 41.9063 5.81096 42.6407V62.0627C5.81096 62.7972 5.21556 63.3925 4.48116 63.3925H1.32978C0.595365 63.3925 0 62.7972 0 62.0627V42.6407C0 41.9063 0.595365 41.311 1.32978 41.311H4.28195C5.01635 41.311 5.6117 40.7156 5.6117 39.9812V36.8298C5.6117 36.0954 6.20709 35.5 6.94149 35.5H10.0929ZM21.7148 35.5C22.4492 35.5 23.0446 36.0954 23.0446 36.8298V39.9812C23.0446 40.7156 23.6399 41.311 24.3743 41.311H27.3265C28.0609 41.311 28.6563 41.9063 28.6563 42.6407V62.0627C28.6563 62.7972 28.0609 63.3925 27.3265 63.3925H24.1751C23.4407 63.3925 22.8453 62.7972 22.8453 62.0627V42.6407C22.8453 41.9063 22.25 41.311 21.5155 41.311H18.5634C17.829 41.311 17.2336 40.7156 17.2336 39.9812V36.8298C17.2336 36.0954 17.829 35.5 18.5634 35.5H21.7148ZM15.9038 46.6238C16.6383 46.6238 17.2336 47.2192 17.2336 47.9536V56.5839C17.2336 57.3183 16.6383 57.9137 15.9038 57.9137H12.7524C12.018 57.9137 11.4227 57.3183 11.4227 56.5839V47.9536C11.4227 47.2192 12.018 46.6238 12.7524 46.6238H15.9038ZM59.9992 41.8368H61.8113L61.8029 59.4768H64.9893V38.8141H59.9992V41.8368ZM51.2602 39.4535H42.6025V59.4902H51.7409C55.6358 59.4902 57.7832 56.9549 57.7832 53.7309C57.8127 52.6091 57.4875 51.5083 56.8573 50.5978C56.2272 49.6873 55.3275 49.0175 54.2961 48.6916V48.5977C55.0936 48.2455 55.7699 47.6505 56.2368 46.8908C56.7034 46.1311 56.9388 45.2422 56.9115 44.3408C56.9115 41.4567 54.9274 39.4535 51.2602 39.4535ZM53.6947 44.9132C53.6947 46.5319 52.7028 47.5961 51.3201 47.5961H45.8277V42.2303H51.3201C52.7028 42.2303 53.6947 43.2945 53.6947 44.9132ZM54.5668 53.5118C54.5668 55.4212 53.3641 56.7358 51.711 56.7358H45.8277V50.3192H51.711C53.3641 50.3192 54.5668 51.6025 54.5668 53.5118ZM67.9392 52.072C67.9392 47.5335 71.1602 44.1844 75.6092 44.1844C80.0582 44.1844 83.3046 47.5022 83.3046 52.072C83.3046 56.6419 80.0882 59.9284 75.6092 59.9284C71.1302 59.9284 67.9392 56.6106 67.9392 52.072ZM74.7675 56.9549H76.4851C78.4393 56.9549 80.1527 54.7952 80.1527 52.072C80.1527 49.3489 78.4351 47.1534 76.4851 47.1534H74.7675C72.8137 47.1534 71.0999 49.3891 71.0999 52.072C71.0999 54.7549 72.8137 56.9549 74.7675 56.9549ZM92.8639 44.1844C88.4452 44.1844 85.3747 47.4083 85.3747 52.0407C85.3747 56.6732 88.4106 59.9284 92.8166 59.9552C96.4412 59.9552 99.2582 57.952 99.6879 54.1021H96.5914C96.5238 54.8991 96.1709 55.6405 95.6033 56.1796C95.0354 56.7187 94.2939 57.0161 93.5255 57.013H92.0221C90.0983 57.013 88.5354 54.7952 88.5354 52.0676C88.5354 49.34 90.0983 47.1489 92.0221 47.1489H93.5255C94.9083 47.1489 96.2607 48.0254 96.5614 49.9973H99.6576C99.2068 46.0937 96.4113 44.1844 92.8639 44.1844ZM102.539 38.8141H105.696V50.2119H107.985L112.253 44.6091H115.86L110.6 51.5265L116.101 59.4768H112.313L107.714 52.9037H105.696V59.4768H102.539V38.8141ZM120.58 55.0143H117.544C117.66 58.2695 119.691 59.9284 123.878 59.9239C128.207 59.9239 130.161 58.2337 130.161 55.1663C130.161 52.7875 128.898 51.2538 126.163 50.9095L122.792 50.4623C121.499 50.2745 120.898 49.6172 120.898 48.6469C120.898 47.6766 121.529 46.9253 122.882 46.9253H124.69C126.253 46.9253 126.764 47.8331 126.914 49.1164H129.95C129.835 45.7046 127.61 44.1709 123.938 44.1709C120.103 44.1709 117.956 45.7985 117.956 48.8034C117.956 51.0883 119.219 52.8411 122.044 53.1854L125.386 53.6326C126.678 53.8249 127.219 54.4196 127.219 55.4212C127.219 56.4228 126.558 57.174 125.145 57.174H123.156C121.512 57.174 120.73 56.3289 120.58 55.0143ZM132.145 52.0407C132.145 47.4083 135.211 44.1844 139.634 44.1844C143.181 44.1844 145.977 46.0937 146.428 49.9973H143.332C143.031 48.0254 141.678 47.1489 140.296 47.1489H138.793C136.865 47.1489 135.301 49.34 135.301 52.0676C135.301 54.7952 136.865 57.013 138.793 57.013H140.296C141.064 57.0161 141.805 56.7187 142.373 56.1796C142.941 55.6405 143.294 54.8991 143.362 54.1021H146.458C146.029 57.952 143.211 59.9552 139.587 59.9552C135.185 59.9284 132.145 56.6732 132.145 52.0407ZM156.129 44.1844C151.68 44.1844 148.464 47.5335 148.464 52.072C148.464 56.6106 151.645 59.9284 156.129 59.9284C160.612 59.9284 163.829 56.6419 163.829 52.072C163.829 47.5022 160.578 44.1844 156.129 44.1844ZM157.005 56.9549H155.296C153.342 56.9549 151.62 54.7549 151.62 52.072C151.62 49.3891 153.334 47.1534 155.287 47.1534H157.005C158.959 47.1534 160.677 49.3489 160.677 52.072C160.677 54.7952 158.959 56.9549 157.005 56.9549ZM166.448 53.9813V44.627H169.605V53.4224C169.605 55.5822 170.657 56.8655 172.04 56.8655H173.757C175.23 56.8655 176.553 55.4569 176.553 53.4224V44.627H179.714V59.4947H176.643V57.4602C175.784 58.9939 174.268 59.9329 171.954 59.9329C168.493 59.9284 166.448 57.8313 166.448 53.9813ZM184.966 47.5201V56.0159C184.966 58.2382 186.254 59.4902 188.564 59.4947H192V56.5212H189.475C188.453 56.5212 188.152 56.0516 188.152 55.0814V47.5066H191.88V44.627H188.152V40.4596H184.966V44.627H182.2V47.5201H184.966Z" fill="#5353D3"/>
</g>
</g>
<defs>
<clipPath id="clip0_12096_16636">
<rect width="191" height="100" fill="white"/>
</clipPath>
<clipPath id="clip1_12096_16636">
<rect width="192" height="28.032" fill="white" transform="translate(0 35.5)"/>
</clipPath>
</defs>
</svg>
