<svg width="191" height="100" viewBox="0 0 191 100" fill="none" xmlns="http://www.w3.org/2000/svg">
<g clip-path="url(#clip0_11975_5790)">
<mask id="mask0_11975_5790" style="mask-type:luminance" maskUnits="userSpaceOnUse" x="0" y="26" width="191" height="49">
<path d="M190.34 26H0.338867V74.1374H190.34V26Z" fill="white"/>
</mask>
<g mask="url(#mask0_11975_5790)">
<path d="M21.1824 26L0.338867 38.0343V62.1031L21.1824 74.1374L42.0259 62.1031V38.0343L21.1824 26ZM33.1955 57.0025L21.1863 63.9361L9.17689 57.0025V43.135L21.1863 36.2013L33.1955 43.135V57.0025Z" fill="#0847F7"/>
<path d="M64.8952 62.1281C62.8253 62.1281 60.9711 61.6544 59.3381 60.7011C57.7035 59.7501 56.4134 58.3772 55.4681 56.5788C54.5226 54.7803 54.0508 52.6161 54.0508 50.0841C54.0508 47.5521 54.5283 45.3531 55.4775 43.5489C56.4288 41.7466 57.7228 40.3719 59.3632 39.4264C61.0019 38.481 62.8464 38.0093 64.8972 38.0093C66.2295 38.0093 67.4734 38.1999 68.6171 38.5773C69.7629 38.9547 70.7815 39.5035 71.6748 40.2236C72.5683 40.9437 73.2942 41.8237 73.8584 42.8634C74.4206 43.9032 74.7846 45.0855 74.9541 46.4121H70.3039C70.1979 45.7401 69.9939 45.1394 69.6897 44.606C69.3835 44.0765 68.9983 43.624 68.5325 43.2505C68.0646 42.8769 67.5332 42.5939 66.942 42.3994C66.347 42.2049 65.7001 42.1086 64.9954 42.1086C63.7554 42.1086 62.6636 42.4187 61.7163 43.0386C60.7708 43.6587 60.0314 44.5617 59.5018 45.7498C58.9704 46.9359 58.7046 48.3838 58.7046 50.0841C58.7046 51.7843 58.9723 53.2611 59.5076 54.4434C60.0449 55.6255 60.7805 56.5172 61.7221 57.1217C62.6636 57.7262 63.7496 58.0286 64.9761 58.0286C65.6597 58.0286 66.295 57.9361 66.8822 57.7513C67.4695 57.5685 67.999 57.2988 68.467 56.9465C68.933 56.5961 69.3258 56.1647 69.6415 55.6545C69.9574 55.1443 70.1788 54.5589 70.3039 53.8985H74.9541C74.8173 54.9999 74.4899 56.0472 73.97 57.035C73.4501 58.021 72.7571 58.897 71.8886 59.6576C71.0222 60.4201 70.0015 61.0189 68.8309 61.4638C67.6583 61.9046 66.347 62.126 64.8991 62.126V62.1318L64.8952 62.1281Z" fill="#0847F7"/>
<path d="M81.951 51.557V61.8027H77.4434V38.3154H81.8257V47.2517H82.0471C82.4555 46.233 83.0986 45.4282 83.9707 44.839C84.841 44.2517 85.9521 43.9552 87.296 43.9552C88.5149 43.9552 89.5836 44.2171 90.4944 44.7427C91.4089 45.2684 92.1194 46.0251 92.622 47.0128C93.1265 47.9988 93.3769 49.1945 93.3769 50.5924V61.7987H88.852V51.3492C88.852 50.2131 88.563 49.3292 87.9854 48.6918C87.4078 48.0565 86.5913 47.7388 85.5419 47.7388C84.8371 47.7388 84.2172 47.891 83.6819 48.197C83.1448 48.5033 82.7231 48.9365 82.4129 49.4968C82.103 50.0609 81.9489 50.7426 81.9489 51.5552V51.5589L81.951 51.557Z" fill="#0847F7"/>
<path d="M101.39 62.1511C100.266 62.1511 99.2606 61.9508 98.373 61.5521C97.4853 61.1516 96.7863 60.5606 96.276 59.7789C95.7658 58.9971 95.5117 58.0266 95.5117 56.8714C95.5117 55.8854 95.6927 55.0632 96.0567 54.4106C96.4204 53.7578 96.9134 53.2322 97.5393 52.8278C98.1649 52.4235 98.8717 52.1173 99.6669 51.9131C100.46 51.7091 101.294 51.5647 102.164 51.4799C103.194 51.3741 104.024 51.2778 104.656 51.1892C105.287 51.1007 105.746 50.9582 106.034 50.7636C106.323 50.5691 106.468 50.2824 106.468 49.9048V49.826C106.468 49.0364 106.225 48.4243 105.744 47.989C105.26 47.5538 104.571 47.3344 103.678 47.3344C102.732 47.3344 101.981 47.5404 101.423 47.9582C100.866 48.3721 100.495 48.8747 100.304 49.462L96.1105 49.0037C96.3724 47.9331 96.8499 47.0205 97.5372 46.2695C98.2247 45.5186 99.0893 44.9448 100.129 44.5501C101.169 44.1554 102.351 43.957 103.676 43.957C104.59 43.957 105.482 44.0648 106.348 44.2805C107.215 44.4942 107.997 44.837 108.698 45.3068C109.394 45.7747 109.955 46.3928 110.367 47.1592C110.781 47.9274 110.991 48.8612 110.991 49.9665V61.8025H106.674V59.359H106.549C106.273 59.8828 105.909 60.3583 105.445 60.78C104.983 61.2017 104.415 61.5328 103.743 61.7814C103.071 62.0297 102.287 62.153 101.394 62.153H101.388L101.39 62.1511ZM102.617 58.9355C103.395 58.9355 104.072 58.7814 104.65 58.4715C105.228 58.1613 105.68 57.7474 106.006 57.2275C106.331 56.7077 106.495 56.1319 106.495 55.5023V53.5306C106.348 53.6364 106.131 53.7309 105.85 53.8155C105.565 53.9004 105.245 53.9772 104.887 54.0448C104.531 54.1122 104.176 54.1717 103.83 54.2257C103.483 54.2777 103.173 54.32 102.9 54.3508C102.301 54.4357 101.773 54.5723 101.315 54.759C100.857 54.9496 100.497 55.2057 100.235 55.5311C99.9731 55.8567 99.8402 56.2666 99.8402 56.7615C99.8402 57.4759 100.1 58.0169 100.62 58.3866C101.14 58.7545 101.804 58.9373 102.613 58.9373H102.615L102.617 58.9355Z" fill="#0847F7"/>
<path d="M113.953 61.8044V44.1824H118.461V61.8044H113.953Z" fill="#0847F7"/>
<path d="M125.933 51.5569V61.8025H121.426V44.1785H125.854V47.2516H126.045C126.444 46.2426 127.077 45.4416 127.944 44.8466C128.81 44.2516 129.9 43.957 131.215 43.957C132.434 43.957 133.499 44.2189 134.406 44.7446C135.314 45.2683 136.019 46.0289 136.52 47.0205C137.019 48.0141 137.269 49.204 137.269 50.5903V61.7968H132.761V51.347C132.761 50.2226 132.47 49.3387 131.887 48.6995C131.306 48.0603 130.503 47.7368 129.482 47.7368C128.789 47.7368 128.175 47.889 127.645 48.195C127.114 48.5011 126.698 48.9345 126.392 49.4948C126.085 50.0589 125.935 50.7406 125.935 51.553V51.5569H125.933Z" fill="#0847F7"/>
<path d="M144.736 37.1602V61.8045H140.229V37.1602H144.736Z" fill="#0847F7"/>
<path d="M147.698 61.8047V44.1826H152.206V61.8047H147.698Z" fill="#0847F7"/>
<path d="M159.677 51.5569V61.8025H155.169V44.1785H159.598V47.2516H159.788C160.187 46.2426 160.82 45.4416 161.687 44.8466C162.553 44.2516 163.643 43.957 164.958 43.957C166.177 43.957 167.242 44.2189 168.151 44.7446C169.059 45.2683 169.764 46.0289 170.263 47.0205C170.762 48.0141 171.012 49.204 171.012 50.5903V61.7968H166.504V51.347C166.504 50.2226 166.214 49.3387 165.63 48.6995C165.049 48.0603 164.246 47.7368 163.225 47.7368C162.532 47.7368 161.918 47.889 161.388 48.195C160.857 48.5011 160.441 48.9345 160.135 49.4948C159.829 50.0589 159.677 50.7406 159.677 51.553V51.5569Z" fill="#0847F7"/>
<path d="M184.995 61.8045H190.34L183.303 51.8132L189.976 44.1805H184.745L178.768 51.0698H178.487V38.3154H173.978V61.8045H178.487V56.0511L179.9 54.4839L184.995 61.8027V61.8045Z" fill="#0847F7"/>
<path d="M118.496 37.1602H113.988V41.6677H118.496V37.1602Z" fill="#0847F7"/>
<path d="M152.245 37.1602H147.737V41.6677H152.245V37.1602Z" fill="#0847F7"/>
</g>
</g>
<defs>
<clipPath id="clip0_11975_5790">
<rect width="190" height="48.2703" fill="white" transform="translate(0.338867 26)"/>
</clipPath>
</defs>
</svg>
