<svg width="191" height="100" viewBox="0 0 191 100" fill="none" xmlns="http://www.w3.org/2000/svg">
<g clip-path="url(#clip0_11975_5787)">
<g clip-path="url(#clip1_11975_5787)">
<path d="M9.2892 62.5226C6.44343 62.5226 4.12088 61.859 2.30878 60.5318C0.522196 59.1791 -0.371094 57.2649 -0.371094 54.7892C-0.371094 54.266 -0.307287 53.628 -0.192436 52.875C0.113835 51.1778 0.56048 49.1232 1.13474 46.7369C2.75542 40.2541 6.94113 37 13.6918 37C15.5295 37 17.1757 37.3063 18.6305 37.9188C20.0853 38.5058 21.2338 39.4119 22.0633 40.6114C22.8927 41.7982 23.3139 43.2147 23.3139 44.861C23.3139 45.3586 23.2501 45.9839 23.1352 46.7369C22.7779 48.8425 22.344 50.8843 21.8463 52.875C21.0168 56.1164 19.562 58.5411 17.5202 60.1362C15.4657 61.7186 12.722 62.5098 9.2892 62.5098V62.5226ZM9.79965 57.4181C11.1396 57.4181 12.2753 57.0225 13.1942 56.244C14.1513 55.4656 14.8276 54.266 15.236 52.6581C15.7847 50.4376 16.2058 48.4979 16.4866 46.839C16.5759 46.3413 16.6269 45.8308 16.6269 45.3204C16.6269 43.1637 15.4912 42.0918 13.2324 42.0918C11.8925 42.0918 10.7568 42.4874 9.79965 43.2658C8.86808 44.0442 8.20449 45.2438 7.79613 46.8517C7.36225 48.4341 6.94112 50.3738 6.50724 52.6709C6.41791 53.143 6.36687 53.6407 6.36687 54.1639C6.36687 56.3334 7.51538 57.4308 9.79965 57.4308V57.4181Z" fill="#FF0420"/>
<path d="M26.9634 62.1654C26.6954 62.1654 26.504 62.0888 26.3508 61.9229C26.236 61.7315 26.1977 61.5273 26.2487 61.2848L31.1874 38.238C31.2384 37.9827 31.366 37.7658 31.583 37.5999C31.7999 37.434 32.0296 37.3574 32.2593 37.3574H41.7792C44.4336 37.3574 46.552 37.9062 48.1471 38.9909C49.7678 40.0756 50.5845 41.6452 50.5845 43.6998C50.5845 44.2868 50.508 44.8993 50.3676 45.5374C49.7678 48.2556 48.5682 50.2591 46.7561 51.5607C44.9696 52.8624 42.5066 53.5132 39.3801 53.5132H34.5436L32.8974 61.2721C32.8463 61.5273 32.7187 61.7442 32.5018 61.9101C32.2848 62.076 32.0551 62.1526 31.8254 62.1526H26.9506L26.9634 62.1654ZM39.6353 48.6256C40.6435 48.6256 41.5113 48.3577 42.2514 47.8089C43.0171 47.2602 43.5148 46.4817 43.7572 45.4736C43.8338 45.078 43.8593 44.7207 43.8593 44.4144C43.8593 43.7253 43.6551 43.2149 43.2468 42.8575C42.8384 42.4747 42.1493 42.296 41.1667 42.296H36.8661L35.5007 48.6384H39.6226L39.6353 48.6256Z" fill="#FF0420"/>
<path d="M58.6496 62.1653C58.3816 62.1653 58.1902 62.0887 58.0371 61.9228C57.8967 61.7314 57.8456 61.5272 57.8967 61.2848L61.8654 42.9213H55.4976C55.2296 42.9213 55.0381 42.8447 54.885 42.6788C54.7702 42.4874 54.7319 42.2832 54.7829 42.0407L55.6124 38.2506C55.6635 37.9954 55.7911 37.7785 56.008 37.6126C56.225 37.4467 56.4547 37.3701 56.6844 37.3701H75.9411C76.2091 37.3701 76.4005 37.4467 76.5537 37.6126C76.643 37.753 76.6941 37.8933 76.6941 38.0337C76.6941 38.1103 76.6941 38.1741 76.6558 38.2506L75.8263 42.0407C75.7752 42.296 75.6476 42.5129 75.4307 42.6788C75.2393 42.8447 75.0096 42.9213 74.7543 42.9213H68.412L64.4432 61.2848C64.3922 61.54 64.2646 61.7569 64.0476 61.9228C63.8307 62.0887 63.601 62.1653 63.3713 62.1653H58.6496Z" fill="#FF0420"/>
<path d="M77.6131 62.1654C77.3451 62.1654 77.1537 62.0888 77.0005 61.9229C76.8602 61.7315 76.8091 61.5273 76.8602 61.2848L81.8371 38.238C81.8881 37.9827 82.0157 37.7658 82.2327 37.5999C82.4496 37.434 82.6793 37.3574 82.909 37.3574H87.7455C88.0135 37.3574 88.205 37.434 88.3581 37.5999C88.4474 37.7403 88.4985 37.8806 88.4985 38.021C88.4985 38.0976 88.4985 38.1614 88.4602 38.238L83.5216 61.2848C83.4705 61.5401 83.3429 61.757 83.126 61.9229C82.909 62.0888 82.6793 62.1654 82.4496 62.1654H77.6131Z" fill="#FF0420"/>
<path d="M91.242 62.1654C90.974 62.1654 90.7826 62.0888 90.6294 61.9229C90.4891 61.757 90.438 61.5401 90.4891 61.2848L95.4277 38.238C95.4787 37.9827 95.6064 37.7658 95.8233 37.5999C96.0402 37.434 96.2827 37.3574 96.5379 37.3574H100.405C100.979 37.3574 101.349 37.6126 101.515 38.1359L105.42 49.302L114.123 38.1359C114.238 37.9444 114.404 37.7658 114.621 37.5999C114.863 37.434 115.144 37.3574 115.476 37.3574H119.381C119.649 37.3574 119.84 37.434 119.993 37.5999C120.083 37.7403 120.134 37.8806 120.134 38.021C120.134 38.0976 120.134 38.1614 120.095 38.238L115.157 61.2848C115.106 61.5401 114.978 61.757 114.761 61.9229C114.544 62.0888 114.314 62.1654 114.085 62.1654H109.759C109.491 62.1654 109.299 62.0888 109.146 61.9229C109.031 61.7315 108.993 61.5273 109.044 61.2848L111.839 48.2045L106.364 55.4019C106.122 55.6571 105.905 55.8613 105.688 56.0017C105.471 56.142 105.228 56.2186 104.935 56.2186H103.072C102.574 56.2186 102.229 55.9506 102.038 55.4019L99.4986 47.8855L96.64 61.2848C96.589 61.5401 96.4614 61.757 96.2444 61.9229C96.0275 62.0888 95.7978 62.1654 95.5681 62.1654H91.2675H91.242Z" fill="#FF0420"/>
<path d="M122.84 62.1654C122.572 62.1654 122.38 62.0888 122.227 61.9229C122.087 61.7315 122.036 61.5273 122.087 61.2848L127.064 38.238C127.115 37.9827 127.242 37.7658 127.459 37.5999C127.676 37.434 127.906 37.3574 128.136 37.3574H132.972C133.24 37.3574 133.432 37.434 133.585 37.5999C133.687 37.7403 133.725 37.8806 133.725 38.021C133.725 38.0976 133.725 38.1614 133.687 38.238L128.748 61.2848C128.697 61.5401 128.569 61.757 128.353 61.9229C128.136 62.0888 127.906 62.1654 127.676 62.1654H122.84Z" fill="#FF0420"/>
<path d="M145.312 62.5224C143.206 62.5224 141.407 62.2417 139.901 61.6674C138.421 61.1059 137.298 60.3402 136.532 59.3959C135.792 58.4515 135.422 57.4051 135.422 56.2438C135.422 56.0524 135.447 55.7717 135.498 55.3888C135.549 55.1719 135.639 54.9932 135.779 54.8529C135.945 54.7125 136.137 54.6359 136.353 54.6359H140.935C141.216 54.6359 141.432 54.687 141.573 54.7763C141.739 54.8656 141.905 55.0315 142.071 55.274C142.236 55.8865 142.619 56.397 143.219 56.7926C143.844 57.1882 144.687 57.3924 145.759 57.3924C147.124 57.3924 148.221 57.1754 149.051 56.7543C149.893 56.3332 150.391 55.7462 150.557 55.0188C150.582 54.9294 150.595 54.7763 150.595 54.5976C150.595 54.0106 150.225 53.5512 149.485 53.2194C148.745 52.8621 147.379 52.4537 145.401 51.9816C143.091 51.4839 141.33 50.7437 140.144 49.7483C138.944 48.7274 138.357 47.413 138.357 45.7796C138.357 45.2181 138.434 44.6311 138.574 44.0441C139.046 41.8491 140.233 40.1263 142.122 38.863C144.036 37.6124 146.486 36.9871 149.498 36.9871C151.31 36.9871 152.918 37.3061 154.334 37.9442C155.738 38.5822 156.823 39.3989 157.588 40.3943C158.379 41.3642 158.775 42.334 158.775 43.3039C158.775 43.5846 158.775 43.7888 158.737 43.9037C158.686 44.1206 158.584 44.2993 158.418 44.4397C158.277 44.58 158.099 44.6566 157.882 44.6566H153.083C152.56 44.6566 152.203 44.4524 152.012 44.0568C151.986 43.5081 151.705 43.0487 151.157 42.6786C150.608 42.2958 149.893 42.1171 149.013 42.1171C147.966 42.1171 147.098 42.3085 146.397 42.6786C145.733 43.0614 145.312 43.6102 145.146 44.3503C145.12 44.4652 145.108 44.6183 145.108 44.8097C145.108 45.3712 145.439 45.8434 146.116 46.2262C146.805 46.5836 148.017 46.9409 149.727 47.3237C152.407 47.8469 154.347 48.5871 155.559 49.5569C156.797 50.5268 157.422 51.8157 157.422 53.4236C157.422 53.9723 157.346 54.5594 157.205 55.1974C156.682 57.6093 155.406 59.4342 153.377 60.6975C151.373 61.9226 148.694 62.5352 145.325 62.5352L145.312 62.5224Z" fill="#FF0420"/>
<path d="M162.157 62.1654C161.889 62.1654 161.698 62.0888 161.544 61.9229C161.404 61.757 161.353 61.5401 161.404 61.2848L166.343 38.238C166.394 37.9827 166.521 37.7658 166.738 37.5999C166.955 37.434 167.185 37.3574 167.453 37.3574H171.32C171.894 37.3574 172.264 37.6126 172.43 38.1359L176.335 49.302L185.038 38.1359C185.153 37.9444 185.319 37.7658 185.536 37.5999C185.778 37.434 186.059 37.3574 186.391 37.3574H190.296C190.564 37.3574 190.768 37.434 190.908 37.5999C190.998 37.7403 191.049 37.8806 191.049 38.021C191.049 38.0976 191.049 38.1614 191.01 38.238L186.072 61.2848C186.021 61.5401 185.893 61.757 185.676 61.9229C185.459 62.0888 185.229 62.1654 185 62.1654H180.674C180.406 62.1654 180.201 62.0888 180.061 61.9229C179.946 61.7315 179.908 61.5273 179.959 61.2848L182.754 48.2045L177.279 55.4019C177.037 55.6571 176.82 55.8613 176.603 56.0017C176.386 56.142 176.131 56.2186 175.85 56.2186H173.987C173.489 56.2186 173.145 55.9506 172.953 55.4019L170.414 47.8855L167.555 61.2848C167.504 61.5401 167.376 61.757 167.159 61.9229C166.943 62.0888 166.713 62.1654 166.483 62.1654H162.183H162.157Z" fill="#FF0420"/>
</g>
</g>
<defs>
<clipPath id="clip0_11975_5787">
<rect width="191" height="100" fill="white"/>
</clipPath>
<clipPath id="clip1_11975_5787">
<rect width="191.419" height="25.5226" fill="white" transform="translate(-0.371094 37)"/>
</clipPath>
</defs>
</svg>
